<svg width="355" height="257" viewBox="0 0 355 257" fill="none" xmlns="http://www.w3.org/2000/svg">
<g filter="url(#filter0_ddddii_413_404)">
<path fill-rule="evenodd" clip-rule="evenodd" d="M244.752 164C237.274 164 233.53 151.192 238.687 145.778C253.132 130.617 262 110.094 262 87.5C262 40.8319 224.168 3 177.5 3C130.832 3 93 40.8319 93 87.5C93 110.094 101.868 130.617 116.313 145.778C121.47 151.192 117.726 164 110.248 164H20C10.6112 164 3 171.611 3 181V236C3 245.389 10.6112 253 20 253H334C343.389 253 351 245.389 351 236V181C351 171.611 343.389 164 334 164H244.752Z" fill="url(#paint0_linear_413_404)"/>
</g>
<path d="M38.9199 188.596H42.2178V204H38.1143L32.2168 193.462V204H28.9189V188.596H33.0117L38.9199 199.145V188.596ZM52.6377 204.172C51.5062 204.172 50.4427 203.979 49.4473 203.592C48.459 203.198 47.6032 202.657 46.8799 201.97C46.1637 201.282 45.5944 200.448 45.1719 199.467C44.7565 198.486 44.5488 197.433 44.5488 196.309C44.5488 195.177 44.7565 194.121 45.1719 193.14C45.5944 192.151 46.1637 191.317 46.8799 190.637C47.6032 189.949 48.459 189.409 49.4473 189.015C50.4427 188.621 51.5062 188.424 52.6377 188.424C53.762 188.424 54.8184 188.621 55.8066 189.015C56.8021 189.409 57.6579 189.949 58.374 190.637C59.0973 191.317 59.6667 192.151 60.082 193.14C60.5046 194.121 60.7158 195.177 60.7158 196.309C60.7158 197.433 60.5046 198.486 60.082 199.467C59.6667 200.448 59.0973 201.282 58.374 201.97C57.6579 202.657 56.8021 203.198 55.8066 203.592C54.8184 203.979 53.762 204.172 52.6377 204.172ZM52.6377 201.153C53.5186 201.153 54.3278 200.946 55.0654 200.53C55.8031 200.115 56.3867 199.535 56.8164 198.79C57.2533 198.038 57.4717 197.207 57.4717 196.298C57.4717 194.909 57.0026 193.756 56.0645 192.839C55.1263 191.915 53.984 191.453 52.6377 191.453C51.2842 191.453 50.1348 191.915 49.1895 192.839C48.2513 193.763 47.7822 194.919 47.7822 196.309C47.7822 197.691 48.2513 198.844 49.1895 199.768C50.1348 200.691 51.2842 201.153 52.6377 201.153ZM74.2617 192.57L70.9639 192.828C70.8063 192.241 70.527 191.786 70.126 191.464C69.7249 191.142 69.2236 190.98 68.6221 190.98C67.8988 190.98 67.3294 191.149 66.9141 191.485C66.4987 191.815 66.291 192.27 66.291 192.85C66.291 193.064 66.3376 193.261 66.4307 193.44C66.5309 193.619 66.6455 193.766 66.7744 193.881C66.9105 193.988 67.1003 194.103 67.3438 194.225C67.5944 194.339 67.8128 194.429 67.999 194.493C68.1924 194.55 68.4502 194.629 68.7725 194.729C69.3812 194.916 69.8861 195.077 70.2871 195.213C70.6882 195.342 71.1178 195.499 71.5762 195.686C72.0345 195.865 72.4069 196.044 72.6934 196.223C72.987 196.395 73.277 196.599 73.5635 196.835C73.8499 197.071 74.0684 197.322 74.2188 197.587C74.3763 197.845 74.5016 198.142 74.5947 198.479C74.6878 198.815 74.7344 199.184 74.7344 199.585C74.7272 200.58 74.4694 201.425 73.9609 202.12C73.4525 202.815 72.7578 203.33 71.877 203.667C70.9961 204.004 69.9541 204.172 68.751 204.172C67.0036 204.172 65.5785 203.789 64.4756 203.022C63.3799 202.256 62.7676 201.153 62.6387 199.714L65.9258 199.456C66.0475 200.115 66.3626 200.623 66.8711 200.981C67.3867 201.34 68.0098 201.519 68.7402 201.519C69.528 201.519 70.1618 201.361 70.6416 201.046C71.1286 200.731 71.3792 200.269 71.3936 199.66C71.4007 199.395 71.3398 199.148 71.2109 198.919C71.082 198.69 70.9173 198.496 70.7168 198.339C70.5163 198.181 70.2477 198.024 69.9111 197.866C69.5745 197.709 69.2666 197.583 68.9873 197.49C68.708 197.39 68.3571 197.275 67.9346 197.146C67.4619 197.01 67.0824 196.896 66.7959 196.803C66.5094 196.702 66.1872 196.584 65.8291 196.448C65.471 196.312 65.1846 196.183 64.9697 196.062C64.762 195.94 64.5329 195.797 64.2822 195.632C64.0387 195.46 63.849 195.285 63.7129 195.105C63.5768 194.919 63.4479 194.708 63.3262 194.472C63.2044 194.228 63.1185 193.963 63.0684 193.677C63.0182 193.39 62.9932 193.072 62.9932 192.721C62.9932 191.783 63.2438 190.988 63.7451 190.336C64.2464 189.677 64.9124 189.194 65.7432 188.886C66.5811 188.578 67.5443 188.424 68.6328 188.424C70.2012 188.424 71.4902 188.778 72.5 189.487C73.5169 190.196 74.1042 191.224 74.2617 192.57ZM88.957 188.596C90.8333 188.596 92.3014 189.104 93.3613 190.121C94.4212 191.131 94.9512 192.449 94.9512 194.074C94.9512 195.693 94.4212 197.007 93.3613 198.017C92.3014 199.019 90.8333 199.521 88.957 199.521H86.0352V204H82.7373V188.596H88.957ZM88.6133 196.889C89.4941 196.889 90.221 196.62 90.7939 196.083C91.3669 195.539 91.6533 194.869 91.6533 194.074C91.6533 193.272 91.3669 192.599 90.7939 192.055C90.221 191.503 89.4941 191.228 88.6133 191.228H86.0244V196.889H88.6133ZM109.668 194.063C109.668 195.238 109.382 196.262 108.809 197.136C108.243 198.009 107.434 198.65 106.381 199.059L109.432 204H106.112L103.373 199.521H100.752V204H97.4541V188.596H103.674C105.55 188.596 107.018 189.104 108.078 190.121C109.138 191.131 109.668 192.445 109.668 194.063ZM100.741 196.889H103.33C104.211 196.889 104.938 196.62 105.511 196.083C106.084 195.539 106.37 194.869 106.37 194.074C106.37 193.272 106.084 192.599 105.511 192.055C104.938 191.503 104.211 191.228 103.33 191.228H100.741V196.889ZM119.69 204.172C118.559 204.172 117.495 203.979 116.5 203.592C115.512 203.198 114.656 202.657 113.933 201.97C113.216 201.282 112.647 200.448 112.225 199.467C111.809 198.486 111.602 197.433 111.602 196.309C111.602 195.177 111.809 194.121 112.225 193.14C112.647 192.151 113.216 191.317 113.933 190.637C114.656 189.949 115.512 189.409 116.5 189.015C117.495 188.621 118.559 188.424 119.69 188.424C120.815 188.424 121.871 188.621 122.859 189.015C123.855 189.409 124.711 189.949 125.427 190.637C126.15 191.317 126.719 192.151 127.135 193.14C127.557 194.121 127.769 195.177 127.769 196.309C127.769 197.433 127.557 198.486 127.135 199.467C126.719 200.448 126.15 201.282 125.427 201.97C124.711 202.657 123.855 203.198 122.859 203.592C121.871 203.979 120.815 204.172 119.69 204.172ZM119.69 201.153C120.571 201.153 121.381 200.946 122.118 200.53C122.856 200.115 123.439 199.535 123.869 198.79C124.306 198.038 124.524 197.207 124.524 196.298C124.524 194.909 124.055 193.756 123.117 192.839C122.179 191.915 121.037 191.453 119.69 191.453C118.337 191.453 117.188 191.915 116.242 192.839C115.304 193.763 114.835 194.919 114.835 196.309C114.835 197.691 115.304 198.844 116.242 199.768C117.188 200.691 118.337 201.153 119.69 201.153ZM136.459 188.596C137.956 188.596 139.299 188.925 140.487 189.584C141.676 190.243 142.604 191.16 143.27 192.334C143.936 193.501 144.269 194.823 144.269 196.298C144.269 197.773 143.936 199.098 143.27 200.272C142.604 201.447 141.676 202.364 140.487 203.022C139.299 203.674 137.956 204 136.459 204H130.089V188.596H136.459ZM136.051 201.368C137.419 201.368 138.579 200.892 139.531 199.939C140.491 198.98 140.971 197.766 140.971 196.298C140.971 195.31 140.749 194.425 140.305 193.645C139.861 192.864 139.266 192.266 138.521 191.851C137.777 191.435 136.953 191.228 136.051 191.228H133.387V201.368H136.051ZM155.849 188.596H159.146V197.888C159.146 199.9 158.588 201.451 157.471 202.539C156.354 203.628 154.853 204.172 152.97 204.172C151.086 204.172 149.582 203.628 148.458 202.539C147.341 201.443 146.782 199.893 146.782 197.888V188.596H150.08V198.092C150.08 199.051 150.341 199.803 150.864 200.348C151.387 200.885 152.089 201.153 152.97 201.153C153.843 201.153 154.538 200.881 155.054 200.337C155.576 199.793 155.838 199.044 155.838 198.092L155.849 188.596ZM162.101 188.596H165.398V204H162.101V188.596ZM179.159 188.596V191.228H175.185V204H171.887V191.228H167.912V188.596H179.159ZM192.275 192.57L188.978 192.828C188.82 192.241 188.541 191.786 188.14 191.464C187.739 191.142 187.237 190.98 186.636 190.98C185.912 190.98 185.343 191.149 184.928 191.485C184.512 191.815 184.305 192.27 184.305 192.85C184.305 193.064 184.351 193.261 184.444 193.44C184.545 193.619 184.659 193.766 184.788 193.881C184.924 193.988 185.114 194.103 185.357 194.225C185.608 194.339 185.826 194.429 186.013 194.493C186.206 194.55 186.464 194.629 186.786 194.729C187.395 194.916 187.9 195.077 188.301 195.213C188.702 195.342 189.132 195.499 189.59 195.686C190.048 195.865 190.421 196.044 190.707 196.223C191.001 196.395 191.291 196.599 191.577 196.835C191.864 197.071 192.082 197.322 192.232 197.587C192.39 197.845 192.515 198.142 192.608 198.479C192.701 198.815 192.748 199.184 192.748 199.585C192.741 200.58 192.483 201.425 191.975 202.12C191.466 202.815 190.771 203.33 189.891 203.667C189.01 204.004 187.968 204.172 186.765 204.172C185.017 204.172 183.592 203.789 182.489 203.022C181.394 202.256 180.781 201.153 180.652 199.714L183.939 199.456C184.061 200.115 184.376 200.623 184.885 200.981C185.4 201.34 186.023 201.519 186.754 201.519C187.542 201.519 188.175 201.361 188.655 201.046C189.142 200.731 189.393 200.269 189.407 199.66C189.414 199.395 189.354 199.148 189.225 198.919C189.096 198.69 188.931 198.496 188.73 198.339C188.53 198.181 188.261 198.024 187.925 197.866C187.588 197.709 187.28 197.583 187.001 197.49C186.722 197.39 186.371 197.275 185.948 197.146C185.476 197.01 185.096 196.896 184.81 196.803C184.523 196.702 184.201 196.584 183.843 196.448C183.485 196.312 183.198 196.183 182.983 196.062C182.776 195.94 182.547 195.797 182.296 195.632C182.052 195.46 181.863 195.285 181.727 195.105C181.59 194.919 181.462 194.708 181.34 194.472C181.218 194.228 181.132 193.963 181.082 193.677C181.032 193.39 181.007 193.072 181.007 192.721C181.007 191.783 181.257 190.988 181.759 190.336C182.26 189.677 182.926 189.194 183.757 188.886C184.595 188.578 185.558 188.424 186.646 188.424C188.215 188.424 189.504 188.778 190.514 189.487C191.531 190.196 192.118 191.224 192.275 192.57ZM211.934 192.57L208.636 192.828C208.478 192.241 208.199 191.786 207.798 191.464C207.397 191.142 206.896 190.98 206.294 190.98C205.571 190.98 205.001 191.149 204.586 191.485C204.171 191.815 203.963 192.27 203.963 192.85C203.963 193.064 204.009 193.261 204.103 193.44C204.203 193.619 204.317 193.766 204.446 193.881C204.582 193.988 204.772 194.103 205.016 194.225C205.266 194.339 205.485 194.429 205.671 194.493C205.864 194.55 206.122 194.629 206.444 194.729C207.053 194.916 207.558 195.077 207.959 195.213C208.36 195.342 208.79 195.499 209.248 195.686C209.706 195.865 210.079 196.044 210.365 196.223C210.659 196.395 210.949 196.599 211.235 196.835C211.522 197.071 211.74 197.322 211.891 197.587C212.048 197.845 212.174 198.142 212.267 198.479C212.36 198.815 212.406 199.184 212.406 199.585C212.399 200.58 212.141 201.425 211.633 202.12C211.124 202.815 210.43 203.33 209.549 203.667C208.668 204.004 207.626 204.172 206.423 204.172C204.675 204.172 203.25 203.789 202.147 203.022C201.052 202.256 200.439 201.153 200.311 199.714L203.598 199.456C203.719 200.115 204.035 200.623 204.543 200.981C205.059 201.34 205.682 201.519 206.412 201.519C207.2 201.519 207.834 201.361 208.313 201.046C208.8 200.731 209.051 200.269 209.065 199.66C209.073 199.395 209.012 199.148 208.883 198.919C208.754 198.69 208.589 198.496 208.389 198.339C208.188 198.181 207.92 198.024 207.583 197.866C207.246 197.709 206.938 197.583 206.659 197.49C206.38 197.39 206.029 197.275 205.606 197.146C205.134 197.01 204.754 196.896 204.468 196.803C204.181 196.702 203.859 196.584 203.501 196.448C203.143 196.312 202.856 196.183 202.642 196.062C202.434 195.94 202.205 195.797 201.954 195.632C201.711 195.46 201.521 195.285 201.385 195.105C201.249 194.919 201.12 194.708 200.998 194.472C200.876 194.228 200.79 193.963 200.74 193.677C200.69 193.39 200.665 193.072 200.665 192.721C200.665 191.783 200.916 190.988 201.417 190.336C201.918 189.677 202.584 189.194 203.415 188.886C204.253 188.578 205.216 188.424 206.305 188.424C207.873 188.424 209.162 188.778 210.172 189.487C211.189 190.196 211.776 191.224 211.934 192.57ZM222.472 204.172C221.34 204.172 220.277 203.979 219.281 203.592C218.293 203.198 217.437 202.657 216.714 201.97C215.998 201.282 215.428 200.448 215.006 199.467C214.59 198.486 214.383 197.433 214.383 196.309C214.383 195.177 214.59 194.121 215.006 193.14C215.428 192.151 215.998 191.317 216.714 190.637C217.437 189.949 218.293 189.409 219.281 189.015C220.277 188.621 221.34 188.424 222.472 188.424C223.596 188.424 224.652 188.621 225.641 189.015C226.636 189.409 227.492 189.949 228.208 190.637C228.931 191.317 229.501 192.151 229.916 193.14C230.339 194.121 230.55 195.177 230.55 196.309C230.55 197.433 230.339 198.486 229.916 199.467C229.501 200.448 228.931 201.282 228.208 201.97C227.492 202.657 226.636 203.198 225.641 203.592C224.652 203.979 223.596 204.172 222.472 204.172ZM222.472 201.153C223.353 201.153 224.162 200.946 224.899 200.53C225.637 200.115 226.221 199.535 226.65 198.79C227.087 198.038 227.306 197.207 227.306 196.298C227.306 194.909 226.837 193.756 225.898 192.839C224.96 191.915 223.818 191.453 222.472 191.453C221.118 191.453 219.969 191.915 219.023 192.839C218.085 193.763 217.616 194.919 217.616 196.309C217.616 197.691 218.085 198.844 219.023 199.768C219.969 200.691 221.118 201.153 222.472 201.153ZM242.871 188.596H246.169V204H242.065L236.168 193.462V204H232.87V188.596H236.963L242.871 199.145V188.596ZM259.919 188.596V191.228H255.944V204H252.646V191.228H248.672V188.596H259.919ZM278.739 188.596V191.228H274.765V204H271.467V191.228H267.492V188.596H278.739ZM287.978 204.172C286.846 204.172 285.783 203.979 284.787 203.592C283.799 203.198 282.943 202.657 282.22 201.97C281.504 201.282 280.934 200.448 280.512 199.467C280.096 198.486 279.889 197.433 279.889 196.309C279.889 195.177 280.096 194.121 280.512 193.14C280.934 192.151 281.504 191.317 282.22 190.637C282.943 189.949 283.799 189.409 284.787 189.015C285.783 188.621 286.846 188.424 287.978 188.424C289.102 188.424 290.158 188.621 291.146 189.015C292.142 189.409 292.998 189.949 293.714 190.637C294.437 191.317 295.007 192.151 295.422 193.14C295.844 194.121 296.056 195.177 296.056 196.309C296.056 197.433 295.844 198.486 295.422 199.467C295.007 200.448 294.437 201.282 293.714 201.97C292.998 202.657 292.142 203.198 291.146 203.592C290.158 203.979 289.102 204.172 287.978 204.172ZM287.978 201.153C288.858 201.153 289.668 200.946 290.405 200.53C291.143 200.115 291.727 199.535 292.156 198.79C292.593 198.038 292.812 197.207 292.812 196.298C292.812 194.909 292.342 193.756 291.404 192.839C290.466 191.915 289.324 191.453 287.978 191.453C286.624 191.453 285.475 191.915 284.529 192.839C283.591 193.763 283.122 194.919 283.122 196.309C283.122 197.691 283.591 198.844 284.529 199.768C285.475 200.691 286.624 201.153 287.978 201.153ZM307.614 188.596H310.912V197.888C310.912 199.9 310.354 201.451 309.236 202.539C308.119 203.628 306.619 204.172 304.735 204.172C302.852 204.172 301.348 203.628 300.224 202.539C299.106 201.443 298.548 199.893 298.548 197.888V188.596H301.846V198.092C301.846 199.051 302.107 199.803 302.63 200.348C303.153 200.885 303.854 201.153 304.735 201.153C305.609 201.153 306.304 200.881 306.819 200.337C307.342 199.793 307.604 199.044 307.604 198.092L307.614 188.596ZM325.049 192.57L321.751 192.828C321.593 192.241 321.314 191.786 320.913 191.464C320.512 191.142 320.011 190.98 319.409 190.98C318.686 190.98 318.117 191.149 317.701 191.485C317.286 191.815 317.078 192.27 317.078 192.85C317.078 193.064 317.125 193.261 317.218 193.44C317.318 193.619 317.433 193.766 317.562 193.881C317.698 193.988 317.887 194.103 318.131 194.225C318.382 194.339 318.6 194.429 318.786 194.493C318.979 194.55 319.237 194.629 319.56 194.729C320.168 194.916 320.673 195.077 321.074 195.213C321.475 195.342 321.905 195.499 322.363 195.686C322.822 195.865 323.194 196.044 323.48 196.223C323.774 196.395 324.064 196.599 324.351 196.835C324.637 197.071 324.855 197.322 325.006 197.587C325.163 197.845 325.289 198.142 325.382 198.479C325.475 198.815 325.521 199.184 325.521 199.585C325.514 200.58 325.257 201.425 324.748 202.12C324.24 202.815 323.545 203.33 322.664 203.667C321.783 204.004 320.741 204.172 319.538 204.172C317.791 204.172 316.366 203.789 315.263 203.022C314.167 202.256 313.555 201.153 313.426 199.714L316.713 199.456C316.835 200.115 317.15 200.623 317.658 200.981C318.174 201.34 318.797 201.519 319.527 201.519C320.315 201.519 320.949 201.361 321.429 201.046C321.916 200.731 322.166 200.269 322.181 199.66C322.188 199.395 322.127 199.148 321.998 198.919C321.869 198.69 321.704 198.496 321.504 198.339C321.303 198.181 321.035 198.024 320.698 197.866C320.362 197.709 320.054 197.583 319.774 197.49C319.495 197.39 319.144 197.275 318.722 197.146C318.249 197.01 317.869 196.896 317.583 196.803C317.297 196.702 316.974 196.584 316.616 196.448C316.258 196.312 315.972 196.183 315.757 196.062C315.549 195.94 315.32 195.797 315.069 195.632C314.826 195.46 314.636 195.285 314.5 195.105C314.364 194.919 314.235 194.708 314.113 194.472C313.992 194.228 313.906 193.963 313.855 193.677C313.805 193.39 313.78 193.072 313.78 192.721C313.78 191.783 314.031 190.988 314.532 190.336C315.034 189.677 315.7 189.194 316.53 188.886C317.368 188.578 318.331 188.424 319.42 188.424C320.988 188.424 322.277 188.778 323.287 189.487C324.304 190.196 324.891 191.224 325.049 192.57ZM63.8633 227.153C64.737 227.153 65.5391 226.949 66.2695 226.541C67.0072 226.126 67.5801 225.56 67.9883 224.844L70.8994 226.229C70.2334 227.454 69.2773 228.417 68.0312 229.119C66.7923 229.821 65.403 230.172 63.8633 230.172C62.7318 230.172 61.6683 229.979 60.6729 229.592C59.6846 229.198 58.8288 228.657 58.1055 227.97C57.3893 227.282 56.82 226.448 56.3975 225.467C55.9821 224.486 55.7744 223.433 55.7744 222.309C55.7744 221.177 55.9821 220.121 56.3975 219.14C56.82 218.151 57.3893 217.317 58.1055 216.637C58.8288 215.949 59.6846 215.409 60.6729 215.015C61.6683 214.621 62.7318 214.424 63.8633 214.424C65.403 214.424 66.7923 214.778 68.0312 215.487C69.2773 216.189 70.2334 217.152 70.8994 218.377L67.9883 219.763C67.5801 219.047 67.0072 218.484 66.2695 218.076C65.5391 217.661 64.737 217.453 63.8633 217.453C62.5098 217.453 61.3604 217.915 60.415 218.839C59.4769 219.763 59.0078 220.919 59.0078 222.309C59.0078 223.691 59.4769 224.844 60.415 225.768C61.3604 226.691 62.5098 227.153 63.8633 227.153ZM73.2734 214.596H83.8115V217.228H76.5713V221.159H83.1455V223.78H76.5713V227.368H84.1445V230H73.2734V214.596ZM99.3018 220.063C99.3018 221.238 99.0153 222.262 98.4424 223.136C97.8766 224.009 97.0674 224.65 96.0146 225.059L99.0654 230H95.7461L93.0068 225.521H90.3857V230H87.0879V214.596H93.3076C95.1839 214.596 96.652 215.104 97.7119 216.121C98.7718 217.131 99.3018 218.445 99.3018 220.063ZM90.375 222.889H92.9639C93.8447 222.889 94.5716 222.62 95.1445 222.083C95.7174 221.539 96.0039 220.869 96.0039 220.074C96.0039 219.272 95.7174 218.599 95.1445 218.055C94.5716 217.503 93.8447 217.228 92.9639 217.228H90.375V222.889ZM111.967 214.596V217.228H107.992V230H104.694V217.228H100.72V214.596H111.967ZM114.48 214.596H117.778V230H114.48V214.596ZM120.732 214.596H131.389V217.228H124.02V221.159H130.723V223.78H124.03V230H120.732V214.596ZM134.354 214.596H137.651V230H134.354V214.596ZM147.255 213.296H144.849L146.675 209.096H149.779L147.255 213.296ZM140.605 214.596H151.144V217.228H143.903V221.159H150.478V223.78H143.903V227.368H151.477V230H140.605V214.596ZM165.259 218.57L161.961 218.828C161.803 218.241 161.524 217.786 161.123 217.464C160.722 217.142 160.221 216.98 159.619 216.98C158.896 216.98 158.326 217.149 157.911 217.485C157.496 217.815 157.288 218.27 157.288 218.85C157.288 219.064 157.335 219.261 157.428 219.44C157.528 219.619 157.643 219.766 157.771 219.881C157.908 219.988 158.097 220.103 158.341 220.225C158.591 220.339 158.81 220.429 158.996 220.493C159.189 220.55 159.447 220.629 159.77 220.729C160.378 220.916 160.883 221.077 161.284 221.213C161.685 221.342 162.115 221.499 162.573 221.686C163.032 221.865 163.404 222.044 163.69 222.223C163.984 222.395 164.274 222.599 164.561 222.835C164.847 223.071 165.065 223.322 165.216 223.587C165.373 223.845 165.499 224.142 165.592 224.479C165.685 224.815 165.731 225.184 165.731 225.585C165.724 226.58 165.466 227.425 164.958 228.12C164.45 228.815 163.755 229.33 162.874 229.667C161.993 230.004 160.951 230.172 159.748 230.172C158.001 230.172 156.576 229.789 155.473 229.022C154.377 228.256 153.765 227.153 153.636 225.714L156.923 225.456C157.045 226.115 157.36 226.623 157.868 226.981C158.384 227.34 159.007 227.519 159.737 227.519C160.525 227.519 161.159 227.361 161.639 227.046C162.126 226.731 162.376 226.269 162.391 225.66C162.398 225.395 162.337 225.148 162.208 224.919C162.079 224.69 161.914 224.496 161.714 224.339C161.513 224.181 161.245 224.024 160.908 223.866C160.572 223.709 160.264 223.583 159.984 223.49C159.705 223.39 159.354 223.275 158.932 223.146C158.459 223.01 158.079 222.896 157.793 222.803C157.507 222.702 157.184 222.584 156.826 222.448C156.468 222.312 156.182 222.183 155.967 222.062C155.759 221.94 155.53 221.797 155.279 221.632C155.036 221.46 154.846 221.285 154.71 221.105C154.574 220.919 154.445 220.708 154.323 220.472C154.201 220.228 154.116 219.963 154.065 219.677C154.015 219.39 153.99 219.072 153.99 218.721C153.99 217.783 154.241 216.988 154.742 216.336C155.243 215.677 155.91 215.194 156.74 214.886C157.578 214.578 158.541 214.424 159.63 214.424C161.198 214.424 162.487 214.778 163.497 215.487C164.514 216.196 165.101 217.224 165.259 218.57ZM183.188 214.596H186.475V230H183.177V224.049H177.032V230H173.734V214.596H177.021V221.428H183.188V214.596ZM199.913 230L199.075 227.336H192.748L191.921 230H188.537L193.382 214.596H198.452L203.308 230H199.913ZM193.575 224.704H198.248L195.917 217.281L193.575 224.704ZM205.359 230V214.596H208.657L208.646 227.368H215.07V230H205.359ZM228.337 230L227.499 227.336H221.172L220.345 230H216.961L221.806 214.596H226.876L231.731 230H228.337ZM221.999 224.704H226.672L224.341 217.281L221.999 224.704ZM233.783 230V214.596H237.081L237.07 227.368H243.494V230H233.783ZM262.433 230L261.595 227.336H255.268L254.44 230H251.057L255.901 214.596H260.972L265.827 230H262.433ZM256.095 224.704H260.768L258.437 217.281L256.095 224.704ZM276.032 214.596H279.545L274.883 230H269.845L265.193 214.596H268.706L272.369 227.164L276.032 214.596ZM292.038 218.57L288.74 218.828C288.583 218.241 288.303 217.786 287.902 217.464C287.501 217.142 287 216.98 286.398 216.98C285.675 216.98 285.106 217.149 284.69 217.485C284.275 217.815 284.067 218.27 284.067 218.85C284.067 219.064 284.114 219.261 284.207 219.44C284.307 219.619 284.422 219.766 284.551 219.881C284.687 219.988 284.877 220.103 285.12 220.225C285.371 220.339 285.589 220.429 285.775 220.493C285.969 220.55 286.227 220.629 286.549 220.729C287.158 220.916 287.662 221.077 288.063 221.213C288.465 221.342 288.894 221.499 289.353 221.686C289.811 221.865 290.183 222.044 290.47 222.223C290.763 222.395 291.053 222.599 291.34 222.835C291.626 223.071 291.845 223.322 291.995 223.587C292.153 223.845 292.278 224.142 292.371 224.479C292.464 224.815 292.511 225.184 292.511 225.585C292.504 226.58 292.246 227.425 291.737 228.12C291.229 228.815 290.534 229.33 289.653 229.667C288.772 230.004 287.73 230.172 286.527 230.172C284.78 230.172 283.355 229.789 282.252 229.022C281.156 228.256 280.544 227.153 280.415 225.714L283.702 225.456C283.824 226.115 284.139 226.623 284.647 226.981C285.163 227.34 285.786 227.519 286.517 227.519C287.304 227.519 287.938 227.361 288.418 227.046C288.905 226.731 289.156 226.269 289.17 225.66C289.177 225.395 289.116 225.148 288.987 224.919C288.858 224.69 288.694 224.496 288.493 224.339C288.293 224.181 288.024 224.024 287.688 223.866C287.351 223.709 287.043 223.583 286.764 223.49C286.484 223.39 286.133 223.275 285.711 223.146C285.238 223.01 284.859 222.896 284.572 222.803C284.286 222.702 283.964 222.584 283.605 222.448C283.247 222.312 282.961 222.183 282.746 222.062C282.538 221.94 282.309 221.797 282.059 221.632C281.815 221.46 281.625 221.285 281.489 221.105C281.353 220.919 281.224 220.708 281.103 220.472C280.981 220.228 280.895 219.963 280.845 219.677C280.795 219.39 280.77 219.072 280.77 218.721C280.77 217.783 281.02 216.988 281.521 216.336C282.023 215.677 282.689 215.194 283.52 214.886C284.357 214.578 285.321 214.424 286.409 214.424C287.978 214.424 289.267 214.778 290.276 215.487C291.293 216.196 291.881 217.224 292.038 218.57Z" fill="#38342F"/>
<g clip-path="url(#clip0_413_404)">
<path d="M251.504 90.3237C251.501 77.054 247.89 64.0348 241.059 52.6585C234.228 41.2822 224.433 31.9767 212.722 25.7371C201.011 19.4975 187.824 16.5585 174.571 17.2345C161.319 17.9104 148.5 22.1759 137.484 29.5748C126.469 36.9736 117.671 47.2275 112.033 59.2399C106.395 71.2522 104.128 84.5712 105.475 97.7723C106.822 110.974 111.731 123.56 119.679 134.187C127.626 144.813 138.313 153.079 150.596 158.102C172.856 165.37 185.614 165.88 209.149 156.712C221.801 150.832 232.509 141.46 240.013 129.698C247.517 117.936 251.504 104.275 251.504 90.3237Z" fill="#C9C9C9"/>
<path d="M227.487 139.487C256.075 110.899 256.075 64.5494 227.487 35.9616C198.899 7.37376 152.549 7.37377 123.962 35.9616C95.3737 64.5494 95.3737 110.899 123.962 139.487C152.549 168.075 198.899 168.075 227.487 139.487Z" fill="url(#paint1_linear_413_404)"/>
<path d="M176.737 24.2522C163.981 24.2459 151.51 28.0227 140.902 35.1047C130.293 42.1868 122.022 52.256 117.137 64.0388C112.251 75.8216 110.969 88.7886 113.454 101.3C115.939 113.811 122.078 125.304 131.095 134.326C140.113 143.348 151.603 149.493 164.113 151.984C176.623 154.474 189.591 153.199 201.376 148.319C213.161 143.439 223.234 135.174 230.321 124.569C237.409 113.963 241.192 101.494 241.192 88.7386C241.192 71.6412 234.402 55.2437 222.315 43.151C210.228 31.0584 193.834 24.2606 176.737 24.2522ZM176.737 139.531C166.69 139.532 156.868 136.554 148.513 130.972C140.159 125.391 133.647 117.458 129.802 108.175C125.956 98.8929 124.95 88.6788 126.91 78.8245C128.87 68.9702 133.708 59.9184 140.812 52.8139C147.917 45.7094 156.968 40.8713 166.823 38.9114C176.677 36.9516 186.891 37.958 196.174 41.8034C205.456 45.6488 213.389 52.1605 218.971 60.5149C224.552 68.8694 227.53 78.6913 227.529 88.7386C227.529 102.21 222.178 115.129 212.653 124.654C203.127 134.18 190.208 139.531 176.737 139.531Z" fill="#1D5C1A"/>
<path d="M175.722 23.238C162.968 23.237 150.5 27.0182 139.894 34.1034C129.289 41.1886 121.023 51.2596 116.141 63.0429C111.259 74.8262 109.982 87.7924 112.469 100.302C114.957 112.811 121.098 124.302 130.117 133.321C139.135 142.34 150.625 148.483 163.135 150.971C175.644 153.46 188.61 152.183 200.394 147.303C212.177 142.422 222.249 134.157 229.335 123.552C236.421 112.947 240.204 100.479 240.204 87.7244C240.204 70.6225 233.41 54.2209 221.318 42.1275C209.225 30.0341 192.824 23.2394 175.722 23.238ZM175.722 138.517C165.675 138.518 155.853 135.539 147.499 129.958C139.144 124.377 132.633 116.443 128.787 107.161C124.942 97.8788 123.935 87.6646 125.895 77.8103C127.855 67.956 132.693 58.9043 139.798 51.7998C146.902 44.6953 155.954 39.8571 165.808 37.8973C175.663 35.9374 185.877 36.9438 195.159 40.7892C204.441 44.6346 212.375 51.1463 217.956 59.5008C223.537 67.8552 226.516 77.6772 226.515 87.7244C226.515 101.195 221.164 114.115 211.638 123.64C202.113 133.166 189.193 138.517 175.722 138.517Z" fill="url(#paint2_linear_413_404)"/>
<path d="M221.533 109.697C216.611 119.956 208.387 128.265 198.18 133.294C187.972 138.322 176.372 139.778 165.239 137.429C154.105 135.079 144.083 129.06 136.778 120.336C129.473 111.612 125.308 100.688 124.951 89.3145C120.176 86.2018 115.798 82.5167 111.918 78.3413C111.466 81.4485 111.238 84.5843 111.236 87.7242C111.243 103.141 116.771 118.045 126.82 129.737C136.869 141.428 150.773 149.134 166.014 151.457C181.255 153.78 196.823 150.567 209.899 142.401C222.975 134.234 232.693 121.654 237.293 106.939C232.094 108.147 226.833 109.067 221.533 109.697Z" fill="url(#paint3_linear_413_404)"/>
<path style="mix-blend-mode:multiply" d="M175.743 35.1936C165.353 35.1905 155.195 38.2687 146.555 44.0389C137.914 49.8091 131.179 58.0122 127.2 67.6106C123.222 77.2091 122.179 87.7717 124.204 97.9627C126.23 108.154 131.231 117.515 138.577 124.863C145.923 132.211 155.283 137.216 165.474 139.244C175.664 141.272 186.227 140.233 195.827 136.258C205.426 132.282 213.631 125.549 219.404 116.91C225.177 108.271 228.258 98.1144 228.258 87.7242C228.26 73.7945 222.728 60.4348 212.88 50.5835C203.031 40.7323 189.673 35.1964 175.743 35.1936ZM175.743 138.517C165.696 138.518 155.874 135.539 147.52 129.958C139.165 124.377 132.654 116.443 128.808 107.161C124.963 97.8785 123.956 87.6643 125.916 77.8101C127.876 67.9558 132.714 58.904 139.819 51.7995C146.923 44.695 155.975 39.8569 165.829 37.897C175.684 35.9371 185.898 36.9435 195.18 40.789C204.462 44.6344 212.396 51.1461 217.977 59.5005C223.558 67.855 226.537 77.6769 226.536 87.7242C226.536 101.195 221.185 114.114 211.659 123.64C202.134 133.165 189.214 138.517 175.743 138.517Z" fill="url(#paint4_linear_413_404)"/>
<path d="M176.842 20.9714C163.418 20.9714 150.296 24.9521 139.134 32.4101C127.973 39.8681 119.273 50.4684 114.136 62.8705C108.999 75.2727 107.655 88.9196 110.274 102.086C112.893 115.252 119.357 127.346 128.849 136.838C138.341 146.33 150.435 152.794 163.601 155.413C176.767 158.032 190.414 156.688 202.816 151.551C215.218 146.414 225.819 137.714 233.277 126.553C240.735 115.391 244.715 102.268 244.715 88.8443C244.715 70.8433 237.564 53.5796 224.836 40.851C212.107 28.1223 194.843 20.9714 176.842 20.9714V20.9714Z" stroke="#1D5C1A" stroke-width="2.75" stroke-miterlimit="10"/>
<path d="M175.723 19.8513C162.298 19.8482 149.174 23.8262 138.01 31.2823C126.846 38.7383 118.144 49.3375 113.005 61.7394C107.865 74.1413 106.519 87.7888 109.136 100.956C111.753 114.123 118.216 126.218 127.708 135.712C137.199 145.206 149.293 151.672 162.46 154.292C175.626 156.912 189.274 155.569 201.677 150.432C214.08 145.295 224.681 136.596 232.14 125.434C239.599 114.272 243.58 101.149 243.58 87.7242C243.581 69.7255 236.433 52.4634 223.707 39.7349C210.982 27.0064 193.721 19.8541 175.723 19.8513V19.8513Z" stroke="url(#paint5_linear_413_404)" stroke-width="2.75" stroke-miterlimit="10"/>
<path d="M176.674 41.375C167.318 41.375 158.173 44.1491 150.395 49.3465C142.616 54.5439 136.554 61.9312 132.974 70.5742C129.394 79.2172 128.457 88.7277 130.282 97.9031C132.107 107.078 136.612 115.507 143.227 122.122C149.842 128.737 158.27 133.242 167.446 135.067C176.621 136.892 186.132 135.955 194.775 132.375C203.418 128.795 210.805 122.732 216.002 114.954C221.2 107.175 223.974 98.0303 223.974 88.6752C223.975 82.4635 222.752 76.3124 220.375 70.5734C217.998 64.8344 214.514 59.6197 210.121 55.2274C205.729 50.835 200.514 47.3509 194.775 44.9741C189.036 42.5973 182.885 41.3743 176.674 41.375V41.375Z" stroke="#1D5C1A" stroke-width="1.92" stroke-miterlimit="10"/>
<path d="M175.892 40.5933C166.536 40.5933 157.391 43.3674 149.613 48.5648C141.834 53.7622 135.772 61.1495 132.192 69.7925C128.612 78.4355 127.675 87.946 129.5 97.1213C131.325 106.297 135.83 114.725 142.445 121.34C149.06 127.955 157.488 132.46 166.664 134.285C175.839 136.11 185.35 135.173 193.993 131.593C202.636 128.013 210.023 121.951 215.22 114.172C220.418 106.394 223.192 97.2486 223.192 87.8935C223.193 81.6818 221.97 75.5307 219.593 69.7917C217.216 64.0526 213.732 58.838 209.339 54.4456C204.947 50.0533 199.732 46.5692 193.993 44.1924C188.254 41.8156 182.103 40.5926 175.892 40.5933V40.5933Z" stroke="url(#paint6_linear_413_404)" stroke-width="1.92" stroke-miterlimit="10"/>
<path d="M155.302 119.74V99.8753H163.962V104.074H159.422V108.036H163.883V112.078H159.422V119.74H155.302Z" fill="#416715"/>
<path d="M174.769 118.454C174.594 118.769 174.384 119.032 174.139 119.242C173.912 119.434 173.623 119.6 173.273 119.74C172.923 119.863 172.512 119.95 172.04 120.003C171.568 120.055 171.017 120.081 170.387 120.081C169.11 120.081 168.139 119.968 167.474 119.74C166.827 119.495 166.328 119.067 165.978 118.454C165.803 118.157 165.655 117.833 165.532 117.483C165.41 117.116 165.305 116.626 165.217 116.014C165.147 115.402 165.095 114.606 165.06 113.626C165.025 112.629 165.007 111.352 165.007 109.795C165.007 108.238 165.025 106.969 165.06 105.99C165.095 105.01 165.147 104.214 165.217 103.602C165.305 102.989 165.41 102.508 165.532 102.158C165.655 101.808 165.803 101.476 165.978 101.161C166.153 100.864 166.354 100.61 166.582 100.4C166.827 100.19 167.124 100.024 167.474 99.9016C167.824 99.7616 168.235 99.6654 168.707 99.6129C169.197 99.5604 169.757 99.5342 170.387 99.5342C171.646 99.5342 172.6 99.6566 173.247 99.9016C173.912 100.146 174.419 100.566 174.769 101.161C174.944 101.476 175.093 101.808 175.215 102.158C175.338 102.508 175.434 102.989 175.504 103.602C175.591 104.214 175.653 105.01 175.688 105.99C175.723 106.969 175.74 108.238 175.74 109.795C175.74 111.352 175.723 112.629 175.688 113.626C175.653 114.606 175.591 115.402 175.504 116.014C175.434 116.626 175.338 117.116 175.215 117.483C175.093 117.833 174.944 118.157 174.769 118.454ZM171.41 115.174C171.445 115.052 171.48 114.894 171.515 114.702C171.55 114.509 171.576 114.221 171.594 113.836C171.611 113.451 171.62 112.935 171.62 112.288C171.638 111.623 171.646 110.757 171.646 109.69C171.646 108.588 171.638 107.704 171.62 107.039C171.62 106.374 171.611 105.85 171.594 105.465C171.576 105.062 171.55 104.765 171.515 104.573C171.48 104.38 171.445 104.223 171.41 104.1C171.34 103.925 171.235 103.803 171.095 103.733C170.955 103.645 170.719 103.602 170.387 103.602C170.054 103.602 169.81 103.645 169.652 103.733C169.512 103.803 169.416 103.925 169.363 104.1C169.311 104.223 169.267 104.38 169.232 104.573C169.215 104.765 169.188 105.062 169.153 105.465C169.136 105.85 169.118 106.374 169.101 107.039C169.101 107.704 169.101 108.588 169.101 109.69C169.101 110.757 169.101 111.623 169.101 112.288C169.118 112.935 169.136 113.451 169.153 113.836C169.188 114.221 169.215 114.509 169.232 114.702C169.267 114.894 169.311 115.052 169.363 115.174C169.416 115.349 169.512 115.472 169.652 115.542C169.81 115.611 170.054 115.646 170.387 115.646C170.719 115.646 170.955 115.611 171.095 115.542C171.235 115.472 171.34 115.349 171.41 115.174Z" fill="#416715"/>
<path d="M186.66 118.454C186.485 118.769 186.275 119.032 186.03 119.242C185.803 119.434 185.514 119.6 185.164 119.74C184.814 119.863 184.403 119.95 183.931 120.003C183.458 120.055 182.907 120.081 182.278 120.081C181 120.081 180.029 119.968 179.365 119.74C178.717 119.495 178.219 119.067 177.869 118.454C177.694 118.157 177.545 117.833 177.423 117.483C177.3 117.116 177.195 116.626 177.108 116.014C177.038 115.402 176.985 114.606 176.95 113.626C176.915 112.629 176.898 111.352 176.898 109.795C176.898 108.238 176.915 106.969 176.95 105.99C176.985 105.01 177.038 104.214 177.108 103.602C177.195 102.989 177.3 102.508 177.423 102.158C177.545 101.808 177.694 101.476 177.869 101.161C178.044 100.864 178.245 100.61 178.472 100.4C178.717 100.19 179.015 100.024 179.365 99.9016C179.715 99.7616 180.126 99.6654 180.598 99.6129C181.088 99.5604 181.648 99.5342 182.278 99.5342C183.537 99.5342 184.491 99.6566 185.138 99.9016C185.803 100.146 186.31 100.566 186.66 101.161C186.835 101.476 186.983 101.808 187.106 102.158C187.228 102.508 187.325 102.989 187.395 103.602C187.482 104.214 187.543 105.01 187.578 105.99C187.613 106.969 187.631 108.238 187.631 109.795C187.631 111.352 187.613 112.629 187.578 113.626C187.543 114.606 187.482 115.402 187.395 116.014C187.325 116.626 187.228 117.116 187.106 117.483C186.983 117.833 186.835 118.157 186.66 118.454ZM183.301 115.174C183.336 115.052 183.371 114.894 183.406 114.702C183.441 114.509 183.467 114.221 183.485 113.836C183.502 113.451 183.511 112.935 183.511 112.288C183.528 111.623 183.537 110.757 183.537 109.69C183.537 108.588 183.528 107.704 183.511 107.039C183.511 106.374 183.502 105.85 183.485 105.465C183.467 105.062 183.441 104.765 183.406 104.573C183.371 104.38 183.336 104.223 183.301 104.1C183.231 103.925 183.126 103.803 182.986 103.733C182.846 103.645 182.61 103.602 182.278 103.602C181.945 103.602 181.7 103.645 181.543 103.733C181.403 103.803 181.307 103.925 181.254 104.1C181.202 104.223 181.158 104.38 181.123 104.573C181.105 104.765 181.079 105.062 181.044 105.465C181.027 105.85 181.009 106.374 180.992 107.039C180.992 107.704 180.992 108.588 180.992 109.69C180.992 110.757 180.992 111.623 180.992 112.288C181.009 112.935 181.027 113.451 181.044 113.836C181.079 114.221 181.105 114.509 181.123 114.702C181.158 114.894 181.202 115.052 181.254 115.174C181.307 115.349 181.403 115.472 181.543 115.542C181.7 115.611 181.945 115.646 182.278 115.646C182.61 115.646 182.846 115.611 182.986 115.542C183.126 115.472 183.231 115.349 183.301 115.174Z" fill="#416715"/>
<path d="M189.104 119.74V99.8753H194.641C195.9 99.8753 196.862 99.9978 197.527 100.243C198.192 100.47 198.699 100.872 199.049 101.45C199.224 101.747 199.364 102.071 199.469 102.421C199.591 102.753 199.688 103.217 199.758 103.812C199.845 104.406 199.906 105.176 199.941 106.121C199.976 107.065 199.994 108.29 199.994 109.795C199.994 111.299 199.976 112.532 199.941 113.495C199.906 114.439 199.845 115.209 199.758 115.804C199.688 116.399 199.591 116.871 199.469 117.221C199.364 117.571 199.224 117.886 199.049 118.166C198.874 118.463 198.664 118.717 198.419 118.927C198.174 119.119 197.877 119.277 197.527 119.399C197.177 119.521 196.766 119.609 196.294 119.661C195.821 119.714 195.27 119.74 194.641 119.74H189.104ZM194.536 115.358C194.868 115.358 195.104 115.323 195.244 115.253C195.384 115.183 195.489 115.06 195.559 114.885C195.594 114.763 195.629 114.623 195.664 114.466C195.699 114.291 195.725 114.019 195.743 113.652C195.76 113.285 195.769 112.795 195.769 112.183C195.786 111.553 195.795 110.731 195.795 109.716C195.795 108.701 195.786 107.879 195.769 107.249C195.769 106.602 195.76 106.095 195.743 105.727C195.725 105.36 195.699 105.089 195.664 104.914C195.629 104.739 195.594 104.59 195.559 104.468C195.489 104.328 195.384 104.223 195.244 104.153C195.104 104.083 194.868 104.048 194.536 104.048H193.223V115.358H194.536Z" fill="#416715"/>
<path d="M154.542 118.979V99.1146H163.201V103.313H158.661V107.276H163.122V111.317H158.661V118.979H154.542Z" fill="#FFFAD2"/>
<path d="M174.008 117.694C173.833 118.008 173.624 118.271 173.379 118.481C173.151 118.673 172.863 118.839 172.513 118.979C172.163 119.102 171.752 119.189 171.279 119.242C170.807 119.294 170.256 119.321 169.626 119.321C168.349 119.321 167.378 119.207 166.713 118.979C166.066 118.734 165.567 118.306 165.217 117.694C165.043 117.396 164.894 117.073 164.771 116.723C164.649 116.355 164.544 115.865 164.456 115.253C164.387 114.641 164.334 113.845 164.299 112.865C164.264 111.868 164.247 110.591 164.247 109.034C164.247 107.477 164.264 106.209 164.299 105.229C164.334 104.249 164.387 103.453 164.456 102.841C164.544 102.229 164.649 101.747 164.771 101.398C164.894 101.048 165.043 100.715 165.217 100.4C165.392 100.103 165.594 99.8493 165.821 99.6394C166.066 99.4295 166.363 99.2633 166.713 99.1408C167.063 99.0009 167.474 98.9046 167.947 98.8522C168.436 98.7997 168.996 98.7734 169.626 98.7734C170.886 98.7734 171.839 98.8959 172.486 99.1408C173.151 99.3857 173.659 99.8056 174.008 100.4C174.183 100.715 174.332 101.048 174.455 101.398C174.577 101.747 174.673 102.229 174.743 102.841C174.831 103.453 174.892 104.249 174.927 105.229C174.962 106.209 174.979 107.477 174.979 109.034C174.979 110.591 174.962 111.868 174.927 112.865C174.892 113.845 174.831 114.641 174.743 115.253C174.673 115.865 174.577 116.355 174.455 116.723C174.332 117.073 174.183 117.396 174.008 117.694ZM170.649 114.413C170.684 114.291 170.719 114.133 170.754 113.941C170.789 113.749 170.816 113.46 170.833 113.075C170.851 112.69 170.859 112.174 170.859 111.527C170.877 110.862 170.886 109.996 170.886 108.929C170.886 107.827 170.877 106.943 170.859 106.279C170.859 105.614 170.851 105.089 170.833 104.704C170.816 104.302 170.789 104.004 170.754 103.812C170.719 103.619 170.684 103.462 170.649 103.339C170.58 103.165 170.475 103.042 170.335 102.972C170.195 102.885 169.958 102.841 169.626 102.841C169.294 102.841 169.049 102.885 168.891 102.972C168.751 103.042 168.655 103.165 168.603 103.339C168.55 103.462 168.506 103.619 168.471 103.812C168.454 104.004 168.428 104.302 168.393 104.704C168.375 105.089 168.358 105.614 168.34 106.279C168.34 106.943 168.34 107.827 168.34 108.929C168.34 109.996 168.34 110.862 168.34 111.527C168.358 112.174 168.375 112.69 168.393 113.075C168.428 113.46 168.454 113.749 168.471 113.941C168.506 114.133 168.55 114.291 168.603 114.413C168.655 114.588 168.751 114.711 168.891 114.781C169.049 114.851 169.294 114.886 169.626 114.886C169.958 114.886 170.195 114.851 170.335 114.781C170.475 114.711 170.58 114.588 170.649 114.413Z" fill="#FFFAD2"/>
<path d="M185.899 117.694C185.724 118.008 185.514 118.271 185.269 118.481C185.042 118.673 184.753 118.839 184.403 118.979C184.053 119.102 183.642 119.189 183.17 119.242C182.698 119.294 182.147 119.321 181.517 119.321C180.24 119.321 179.269 119.207 178.604 118.979C177.957 118.734 177.458 118.306 177.108 117.694C176.933 117.396 176.785 117.073 176.662 116.723C176.54 116.355 176.435 115.865 176.347 115.253C176.277 114.641 176.225 113.845 176.19 112.865C176.155 111.868 176.137 110.591 176.137 109.034C176.137 107.477 176.155 106.209 176.19 105.229C176.225 104.249 176.277 103.453 176.347 102.841C176.435 102.229 176.54 101.747 176.662 101.398C176.785 101.048 176.933 100.715 177.108 100.4C177.283 100.103 177.484 99.8493 177.712 99.6394C177.957 99.4295 178.254 99.2633 178.604 99.1408C178.954 99.0009 179.365 98.9046 179.837 98.8522C180.327 98.7997 180.887 98.7734 181.517 98.7734C182.776 98.7734 183.73 98.8959 184.377 99.1408C185.042 99.3857 185.549 99.8056 185.899 100.4C186.074 100.715 186.223 101.048 186.345 101.398C186.468 101.747 186.564 102.229 186.634 102.841C186.721 103.453 186.783 104.249 186.818 105.229C186.853 106.209 186.87 107.477 186.87 109.034C186.87 110.591 186.853 111.868 186.818 112.865C186.783 113.845 186.721 114.641 186.634 115.253C186.564 115.865 186.468 116.355 186.345 116.723C186.223 117.073 186.074 117.396 185.899 117.694ZM182.54 114.413C182.575 114.291 182.61 114.133 182.645 113.941C182.68 113.749 182.706 113.46 182.724 113.075C182.741 112.69 182.75 112.174 182.75 111.527C182.768 110.862 182.776 109.996 182.776 108.929C182.776 107.827 182.768 106.943 182.75 106.279C182.75 105.614 182.741 105.089 182.724 104.704C182.706 104.302 182.68 104.004 182.645 103.812C182.61 103.619 182.575 103.462 182.54 103.339C182.47 103.165 182.365 103.042 182.225 102.972C182.085 102.885 181.849 102.841 181.517 102.841C181.184 102.841 180.939 102.885 180.782 102.972C180.642 103.042 180.546 103.165 180.493 103.339C180.441 103.462 180.397 103.619 180.362 103.812C180.345 104.004 180.318 104.302 180.283 104.704C180.266 105.089 180.248 105.614 180.231 106.279C180.231 106.943 180.231 107.827 180.231 108.929C180.231 109.996 180.231 110.862 180.231 111.527C180.248 112.174 180.266 112.69 180.283 113.075C180.318 113.46 180.345 113.749 180.362 113.941C180.397 114.133 180.441 114.291 180.493 114.413C180.546 114.588 180.642 114.711 180.782 114.781C180.939 114.851 181.184 114.886 181.517 114.886C181.849 114.886 182.085 114.851 182.225 114.781C182.365 114.711 182.47 114.588 182.54 114.413Z" fill="#FFFAD2"/>
<path d="M188.343 118.979V99.1146H193.88C195.139 99.1146 196.102 99.237 196.766 99.482C197.431 99.7094 197.938 100.112 198.288 100.689C198.463 100.986 198.603 101.31 198.708 101.66C198.831 101.992 198.927 102.456 198.997 103.051C199.084 103.646 199.146 104.415 199.181 105.36C199.216 106.305 199.233 107.529 199.233 109.034C199.233 110.538 199.216 111.772 199.181 112.734C199.146 113.679 199.084 114.448 198.997 115.043C198.927 115.638 198.831 116.11 198.708 116.46C198.603 116.81 198.463 117.125 198.288 117.405C198.113 117.702 197.903 117.956 197.659 118.166C197.414 118.358 197.116 118.516 196.766 118.638C196.416 118.761 196.005 118.848 195.533 118.901C195.061 118.953 194.51 118.979 193.88 118.979H188.343ZM193.775 114.597C194.107 114.597 194.343 114.562 194.483 114.492C194.623 114.422 194.728 114.3 194.798 114.125C194.833 114.002 194.868 113.862 194.903 113.705C194.938 113.53 194.964 113.259 194.982 112.891C194.999 112.524 195.008 112.034 195.008 111.422C195.026 110.792 195.034 109.97 195.034 108.955C195.034 107.94 195.026 107.118 195.008 106.488C195.008 105.841 194.999 105.334 194.982 104.966C194.964 104.599 194.938 104.328 194.903 104.153C194.868 103.978 194.833 103.829 194.798 103.707C194.728 103.567 194.623 103.462 194.483 103.392C194.343 103.322 194.107 103.287 193.775 103.287H192.463V114.597H193.775Z" fill="#FFFAD2"/>
<path d="M174.167 84.1727C174.009 84.1727 173.852 84.271 173.793 84.4282C173.734 84.5658 173.302 85.8236 172.771 87.3566C172.26 88.7716 171.69 90.4225 171.258 91.6607H166.168L166.403 90.8942C166.856 89.4988 167.406 87.7497 168.113 86.4329C168.408 85.8236 168.998 85.3126 169.627 84.9589C169.784 84.8803 169.862 84.7427 169.862 84.5855C169.862 84.4282 169.745 84.1727 169.45 84.1727C169.391 84.1727 169.312 84.1924 169.253 84.2317C168.821 84.4675 168.447 84.7427 167.995 85.1751C167.032 84.9982 166.168 84.723 165.362 84.4675C164.025 84.0548 162.807 83.6814 161.353 83.6814C159.623 83.6814 157.953 85.2537 157.953 87.16C157.953 88.8699 159.132 90.0294 161.038 90.0294C161.746 90.0294 162.512 89.8526 163.2 89.5381C163.357 89.4595 163.436 89.3219 163.436 89.1647C163.436 89.0075 163.318 88.752 163.043 88.752C162.964 88.752 162.905 88.7716 162.846 88.7913C162.257 89.0468 161.628 89.204 161.058 89.204C159.721 89.204 158.778 88.5554 158.778 87.1011C158.778 85.7843 160.055 84.5068 161.353 84.5068C162.669 84.5068 163.849 84.8803 165.106 85.2733C165.834 85.4895 166.6 85.7254 167.445 85.9219L167.386 86.0398C166.62 87.4352 166.069 89.2237 165.617 90.6387L165.283 91.6607H164.183C163.947 91.6607 163.77 91.8572 163.77 92.0931C163.77 92.3092 163.947 92.5058 164.183 92.5058H165.008C164.949 92.663 164.89 92.8595 164.831 93.0364C163.927 95.8272 163.043 98.5197 160.213 98.5197C158.522 98.5197 157.618 97.3798 157.618 95.8272C157.618 93.9208 159.289 92.4861 161.038 92.4861C161.274 92.4861 161.451 92.2896 161.451 92.0537C161.451 91.8376 161.274 91.641 161.038 91.641C158.857 91.6803 156.793 93.4295 156.793 95.8075C156.793 97.8122 157.992 99.3452 160.193 99.3452C163.652 99.3452 164.635 96.3775 165.637 93.2919C165.716 93.0364 165.794 92.7809 165.892 92.5058H170.963L170.629 93.4295C169.41 96.633 168.703 98.6376 168.703 99.8168C168.703 101.252 169.332 102.352 170.845 102.391C171.081 102.391 171.258 102.195 171.278 101.979C171.278 101.743 171.081 101.546 170.865 101.546C169.862 101.546 169.489 100.8 169.528 99.8168C169.568 98.7949 170.138 97.1833 171.415 93.7046C171.553 93.3312 172.673 90.1081 173.538 87.6317L174.56 84.723C174.658 84.4675 174.501 84.1727 174.167 84.1727Z" fill="#416715"/>
<path d="M181.528 93.5867C181.469 93.5671 181.41 93.5474 181.351 93.5474C181.194 93.5474 181.056 93.6457 180.977 93.8029L180.958 93.8619C180.309 95.3162 179.366 97.4388 178.147 97.4388C177.735 97.4388 177.558 97.2029 177.558 96.6133C177.558 95.7486 178.206 94.0387 178.914 92.0537L179.896 89.4202C179.995 89.1844 179.838 88.8699 179.523 88.8699C179.346 88.8699 179.189 88.9682 179.13 89.1254C179.032 89.3809 178.914 89.6757 178.796 90.0098C178.442 89.3023 177.833 88.9682 177.007 88.9682C174.649 88.9682 172.664 93.5671 172.664 96.1417C172.664 97.3209 173.175 98.2642 174.276 98.2642C175.121 98.2642 175.946 97.7139 176.732 96.6133C176.732 97.5764 177.204 98.2642 178.147 98.2642C179.916 98.2642 180.977 95.8469 181.724 94.196L181.744 94.137C181.764 94.078 181.783 94.0191 181.783 93.9601C181.783 93.8029 181.685 93.6653 181.528 93.5867ZM174.256 97.4388C173.666 97.4388 173.489 96.8688 173.489 96.0041C173.529 94.0584 175.199 89.8329 177.007 89.7936C177.715 89.7936 178.226 90.3242 178.265 91.2283L177.794 92.4861C177.007 94.4908 175.848 97.4388 174.256 97.4388Z" fill="#416715"/>
<path d="M185.602 93.5867C185.543 93.5671 185.484 93.5474 185.425 93.5474C185.268 93.5474 185.111 93.6457 185.032 93.7832C184.109 95.8075 183.165 97.4388 181.75 97.4388C181.357 97.4388 181.121 97.144 181.121 96.6133C181.121 96.2596 181.337 95.3752 181.77 94.0387C182.34 92.3682 182.91 90.7959 183.46 89.2237L184.482 86.2363C184.561 86.0202 184.443 85.7843 184.227 85.7057C184.01 85.6467 183.774 85.745 183.696 85.9612L182.674 88.9485C182.104 90.5797 181.514 92.2306 180.984 93.7832C180.492 95.3359 180.296 96.0434 180.296 96.6133C180.296 97.5567 180.807 98.2642 181.75 98.2642C183.558 98.2642 184.659 96.5937 185.799 94.137C185.818 94.078 185.838 94.0191 185.838 93.9601C185.838 93.8029 185.74 93.6653 185.602 93.5867Z" fill="#416715"/>
<path d="M193.504 93.5867C193.445 93.5671 193.386 93.5474 193.327 93.5474C193.17 93.5474 193.032 93.6457 192.954 93.8029L192.934 93.8619C192.285 95.3162 191.342 97.4388 190.124 97.4388C189.711 97.4388 189.534 97.2029 189.534 96.6133C189.534 95.7486 190.183 94.0387 190.89 92.0537L191.873 89.4202C191.971 89.1844 191.814 88.8699 191.499 88.8699C191.322 88.8699 191.165 88.9682 191.106 89.1254C191.008 89.3809 190.89 89.6757 190.772 90.0098C190.418 89.3023 189.809 88.9682 188.984 88.9682C186.625 88.9682 184.64 93.5671 184.64 96.1417C184.64 97.3209 185.151 98.2642 186.252 98.2642C187.097 98.2642 187.922 97.7139 188.709 96.6133C188.709 97.5764 189.18 98.2642 190.124 98.2642C191.892 98.2642 192.954 95.8469 193.701 94.196L193.72 94.137C193.74 94.078 193.759 94.0191 193.759 93.9601C193.759 93.8029 193.661 93.6653 193.504 93.5867ZM186.232 97.4388C185.643 97.4388 185.466 96.8688 185.466 96.0041C185.505 94.0584 187.176 89.8329 188.984 89.7936C189.691 89.7936 190.202 90.3242 190.242 91.2283L189.77 92.4861C188.984 94.4908 187.824 97.4388 186.232 97.4388Z" fill="#416715"/>
<path d="M197.579 93.5867C197.52 93.5671 197.461 93.5474 197.402 93.5474C197.244 93.5474 197.087 93.6457 197.009 93.7832C196.085 95.8075 195.142 97.4388 193.726 97.4388C193.333 97.4388 193.098 97.144 193.098 96.6133C193.098 96.2596 193.314 95.3752 193.746 94.0387C194.316 92.3682 194.886 90.7959 195.436 89.2237L196.458 86.2363C196.537 86.0202 196.419 85.7843 196.203 85.7057C195.987 85.6467 195.751 85.745 195.672 85.9612L194.65 88.9485C194.08 90.5797 193.491 92.2306 192.96 93.7832C192.469 95.3359 192.272 96.0434 192.272 96.6133C192.272 97.5567 192.783 98.2642 193.726 98.2642C195.535 98.2642 196.635 96.5937 197.775 94.137C197.795 94.078 197.814 94.0191 197.814 93.9601C197.814 93.8029 197.716 93.6653 197.579 93.5867Z" fill="#416715"/>
<path d="M173.781 83.787C173.624 83.787 173.466 83.8853 173.407 84.0425C173.348 84.1801 172.916 85.4379 172.385 86.9708C171.874 88.3859 171.305 90.0368 170.872 91.2749H165.782L166.018 90.5085C166.47 89.1131 167.02 87.3639 167.728 86.0471C168.022 85.4379 168.612 84.9269 169.241 84.5731C169.398 84.4945 169.477 84.3569 169.477 84.1997C169.477 84.0425 169.359 83.787 169.064 83.787C169.005 83.787 168.926 83.8066 168.867 83.8459C168.435 84.0818 168.062 84.3569 167.61 84.7893C166.647 84.6124 165.782 84.3373 164.976 84.0818C163.64 83.6691 162.421 83.2957 160.967 83.2957C159.237 83.2957 157.567 84.8679 157.567 86.7743C157.567 88.4842 158.746 89.6437 160.652 89.6437C161.36 89.6437 162.126 89.4668 162.814 89.1524C162.971 89.0738 163.05 88.9362 163.05 88.779C163.05 88.6217 162.932 88.3662 162.657 88.3662C162.578 88.3662 162.519 88.3859 162.46 88.4055C161.871 88.661 161.242 88.8183 160.672 88.8183C159.336 88.8183 158.392 88.1697 158.392 86.7153C158.392 85.3986 159.67 84.1211 160.967 84.1211C162.284 84.1211 163.463 84.4945 164.721 84.8876C165.448 85.1038 166.214 85.3396 167.059 85.5361L167 85.6541C166.234 87.0495 165.684 88.8379 165.232 90.253L164.897 91.2749H163.797C163.561 91.2749 163.384 91.4715 163.384 91.7073C163.384 91.9235 163.561 92.12 163.797 92.12H164.622C164.563 92.2773 164.504 92.4738 164.445 92.6507C163.541 95.4415 162.657 98.134 159.827 98.134C158.137 98.134 157.233 96.9941 157.233 95.4415C157.233 93.5351 158.903 92.1004 160.652 92.1004C160.888 92.1004 161.065 91.9038 161.065 91.668C161.065 91.4518 160.888 91.2553 160.652 91.2553C158.471 91.2946 156.407 93.0437 156.407 95.4218C156.407 97.4265 157.606 98.9594 159.807 98.9594C163.266 98.9594 164.249 95.9918 165.251 92.9062C165.33 92.6507 165.408 92.3952 165.507 92.12H170.577L170.243 93.0437C169.025 96.2472 168.317 98.2519 168.317 99.4311C168.317 100.866 168.946 101.966 170.459 102.006C170.695 102.006 170.872 101.809 170.892 101.593C170.892 101.357 170.695 101.161 170.479 101.161C169.477 101.161 169.103 100.414 169.143 99.4311C169.182 98.4091 169.752 96.7975 171.029 93.3189C171.167 92.9455 172.287 89.7223 173.152 87.246L174.174 84.3373C174.272 84.0818 174.115 83.787 173.781 83.787Z" fill="#FFFAD2"/>
<path d="M181.142 93.201C181.083 93.1813 181.024 93.1617 180.965 93.1617C180.808 93.1617 180.67 93.2599 180.592 93.4172L180.572 93.4761C179.923 94.9305 178.98 97.053 177.762 97.053C177.349 97.053 177.172 96.8172 177.172 96.2276C177.172 95.3628 177.821 93.653 178.528 91.668L179.511 89.0344C179.609 88.7986 179.452 88.4842 179.137 88.4842C178.96 88.4842 178.803 88.5824 178.744 88.7396C178.646 88.9951 178.528 89.2899 178.41 89.6241C178.056 88.9165 177.447 88.5824 176.622 88.5824C174.263 88.5824 172.278 93.1813 172.278 95.7559C172.278 96.9351 172.789 97.8785 173.89 97.8785C174.735 97.8785 175.56 97.3282 176.347 96.2276C176.347 97.1906 176.818 97.8785 177.762 97.8785C179.53 97.8785 180.592 95.4611 181.338 93.8102L181.358 93.7513C181.378 93.6923 181.397 93.6333 181.397 93.5744C181.397 93.4172 181.299 93.2796 181.142 93.201ZM173.87 97.053C173.281 97.053 173.104 96.4831 173.104 95.6183C173.143 93.6727 174.814 89.4472 176.622 89.4079C177.329 89.4079 177.84 89.9385 177.879 90.8426L177.408 92.1004C176.622 94.105 175.462 97.053 173.87 97.053Z" fill="#FFFAD2"/>
<path d="M185.217 93.201C185.158 93.1813 185.099 93.1617 185.04 93.1617C184.882 93.1617 184.725 93.2599 184.647 93.3975C183.723 95.4218 182.779 97.053 181.364 97.053C180.971 97.053 180.736 96.7582 180.736 96.2276C180.736 95.8738 180.952 94.9894 181.384 93.653C181.954 91.9825 182.524 90.4102 183.074 88.8379L184.096 85.8506C184.175 85.6344 184.057 85.3986 183.841 85.32C183.625 85.261 183.389 85.3593 183.31 85.5754L182.288 88.5628C181.718 90.194 181.129 91.8449 180.598 93.3975C180.107 94.9501 179.91 95.6576 179.91 96.2276C179.91 97.171 180.421 97.8785 181.364 97.8785C183.173 97.8785 184.273 96.2079 185.413 93.7513C185.433 93.6923 185.452 93.6333 185.452 93.5744C185.452 93.4172 185.354 93.2796 185.217 93.201Z" fill="#FFFAD2"/>
<path d="M193.118 93.201C193.059 93.1813 193 93.1617 192.941 93.1617C192.784 93.1617 192.647 93.2599 192.568 93.4172L192.548 93.4761C191.9 94.9305 190.956 97.053 189.738 97.053C189.325 97.053 189.148 96.8172 189.148 96.2276C189.148 95.3628 189.797 93.653 190.504 91.668L191.487 89.0344C191.585 88.7986 191.428 88.4842 191.114 88.4842C190.937 88.4842 190.779 88.5824 190.721 88.7396C190.622 88.9951 190.504 89.2899 190.386 89.6241C190.033 88.9165 189.423 88.5824 188.598 88.5824C186.24 88.5824 184.255 93.1813 184.255 95.7559C184.255 96.9351 184.766 97.8785 185.866 97.8785C186.711 97.8785 187.537 97.3282 188.323 96.2276C188.323 97.1906 188.795 97.8785 189.738 97.8785C191.507 97.8785 192.568 95.4611 193.315 93.8102L193.334 93.7513C193.354 93.6923 193.374 93.6333 193.374 93.5744C193.374 93.4172 193.275 93.2796 193.118 93.201ZM185.846 97.053C185.257 97.053 185.08 96.4831 185.08 95.6183C185.119 93.6727 186.79 89.4472 188.598 89.4079C189.305 89.4079 189.816 89.9385 189.856 90.8426L189.384 92.1004C188.598 94.105 187.438 97.053 185.846 97.053Z" fill="#FFFAD2"/>
<path d="M197.193 93.201C197.134 93.1813 197.075 93.1617 197.016 93.1617C196.859 93.1617 196.701 93.2599 196.623 93.3975C195.699 95.4218 194.756 97.053 193.341 97.053C192.948 97.053 192.712 96.7582 192.712 96.2276C192.712 95.8738 192.928 94.9894 193.36 93.653C193.93 91.9825 194.5 90.4102 195.051 88.8379L196.073 85.8506C196.151 85.6344 196.033 85.3986 195.817 85.32C195.601 85.261 195.365 85.3593 195.286 85.5754L194.264 88.5628C193.694 90.194 193.105 91.8449 192.574 93.3975C192.083 94.9501 191.886 95.6576 191.886 96.2276C191.886 97.171 192.397 97.8785 193.341 97.8785C195.149 97.8785 196.249 96.2079 197.389 93.7513C197.409 93.6923 197.429 93.6333 197.429 93.5744C197.429 93.4172 197.33 93.2796 197.193 93.201Z" fill="#FFFAD2"/>
<path d="M147.289 38.6129C147.441 38.7072 147.585 38.8144 147.72 38.9344C147.856 39.0464 147.982 39.1688 148.097 39.3016C147.906 39.5601 147.717 39.771 147.533 39.9343C147.353 40.0945 147.147 40.2513 146.914 40.4048C146.501 40.6765 146.096 40.8491 145.699 40.9226C145.299 40.9913 144.914 40.9771 144.544 40.8799C144.175 40.7747 143.829 40.5922 143.505 40.3325C143.181 40.0728 142.891 39.7488 142.635 39.3606C142.379 38.9723 142.199 38.5764 142.093 38.1728C141.984 37.7644 141.954 37.3702 142.003 36.9901C142.057 36.6067 142.192 36.2464 142.408 35.9092C142.629 35.5687 142.936 35.269 143.329 35.0101C143.562 34.8566 143.785 34.7305 143.999 34.6318C144.217 34.5299 144.47 34.4499 144.759 34.3918C144.845 34.5438 144.911 34.7062 144.955 34.8789C144.996 35.0468 145.033 35.2203 145.068 35.3994C144.86 35.453 144.682 35.5108 144.535 35.5729C144.388 35.6349 144.225 35.7251 144.045 35.8434C143.579 36.1502 143.321 36.5396 143.27 37.0116C143.22 37.4756 143.392 38.006 143.785 38.603C144.565 39.7872 145.458 40.0485 146.462 39.3868C146.642 39.2685 146.792 39.1525 146.912 39.0387C147.032 38.925 147.157 38.783 147.289 38.6129Z" fill="#1A5B2B"/>
<path d="M145.972 33.5048L149.108 31.8274C149.221 31.9647 149.32 32.1128 149.405 32.2716C149.495 32.4407 149.566 32.6104 149.618 32.7806L147.604 33.8577L148.245 35.0569L149.844 34.2017C149.962 34.3493 150.063 34.4999 150.145 34.6536C150.233 34.8176 150.304 34.9873 150.358 35.1626L148.759 36.0177L149.54 37.4782L151.608 36.3723C151.721 36.5096 151.82 36.6577 151.905 36.8165C151.995 36.9856 152.066 37.1553 152.118 37.3255L148.928 39.0316L145.972 33.5048Z" fill="#1A5B2B"/>
<path d="M150.539 31.1475C150.762 31.0211 150.973 30.9068 151.169 30.8046C151.368 30.6948 151.594 30.5867 151.845 30.4801C152.139 30.3555 152.439 30.2598 152.745 30.1932C153.057 30.1242 153.357 30.1106 153.646 30.1521C153.932 30.1883 154.195 30.2946 154.434 30.4709C154.675 30.6396 154.872 30.9031 155.024 31.2613C155.115 31.4751 155.168 31.6763 155.185 31.8647C155.2 32.0478 155.19 32.2189 155.157 32.3781C155.129 32.5351 155.086 32.6794 155.028 32.8111C154.968 32.9375 154.907 33.0455 154.844 33.1352L154.745 33.2812L157.182 35.1243C157.08 35.1804 156.972 35.2386 156.859 35.2992C156.746 35.3598 156.628 35.4161 156.505 35.4682C156.301 35.5543 156.094 35.6233 155.883 35.6751L153.24 33.6356L153.391 33.4578C153.45 33.3886 153.521 33.302 153.603 33.1978C153.685 33.0937 153.756 32.9784 153.816 32.8521C153.879 32.7181 153.919 32.5749 153.936 32.4225C153.951 32.2647 153.923 32.1003 153.85 31.9292C153.707 31.5924 153.507 31.3872 153.249 31.3138C152.988 31.235 152.706 31.2602 152.401 31.3893C152.283 31.4392 152.18 31.4926 152.09 31.5494L154.154 36.4174C154.062 36.4689 153.969 36.5177 153.875 36.5639C153.784 36.6154 153.692 36.6604 153.601 36.6989C153.511 36.7375 153.413 36.7756 153.309 36.8133C153.205 36.851 153.097 36.8845 152.983 36.9138L150.539 31.1475Z" fill="#1A5B2B"/>
<path d="M157.19 29.7088L155.703 30.1793C155.617 30.0236 155.545 29.8543 155.487 29.6715C155.433 29.4997 155.396 29.3255 155.377 29.1487L159.574 27.8213C159.66 27.977 159.73 28.1407 159.784 28.3125C159.842 28.4954 159.881 28.6752 159.9 28.8519L158.412 29.3224L159.976 34.2678C159.88 34.3104 159.783 34.3502 159.685 34.3873C159.589 34.43 159.493 34.4662 159.399 34.4959C159.305 34.5257 159.202 34.5554 159.089 34.5849C158.982 34.6126 158.87 34.6357 158.754 34.6542L157.19 29.7088Z" fill="#1A5B2B"/>
<path d="M160.818 27.5806C161.018 27.4973 161.22 27.4316 161.423 27.3835C161.626 27.3354 161.838 27.3029 162.061 27.2859L163.502 33.3656C163.296 33.4502 163.094 33.5159 162.897 33.5626C162.688 33.6121 162.476 33.6446 162.259 33.6603L160.818 27.5806Z" fill="#1A5B2B"/>
<path d="M163.542 26.8938L167.047 26.2891C167.111 26.4549 167.159 26.6266 167.189 26.8042C167.222 26.9932 167.236 27.1765 167.231 27.3543L164.98 27.7426L165.231 29.1944L167.018 28.8861C167.084 29.0634 167.132 29.238 167.161 29.4098C167.193 29.593 167.207 29.7764 167.203 29.9598L165.416 30.2682L165.862 32.8538C165.651 32.9257 165.448 32.9785 165.253 33.0121C165.041 33.0487 164.826 33.068 164.608 33.0702L163.542 26.8938Z" fill="#1A5B2B"/>
<path d="M168.21 26.2309C168.419 26.1727 168.627 26.1321 168.834 26.1091C169.041 26.0861 169.256 26.0797 169.479 26.0899L170.168 32.2949C169.953 32.3538 169.745 32.3943 169.544 32.4167C169.331 32.4404 169.116 32.4468 168.899 32.4359L168.21 26.2309Z" fill="#1A5B2B"/>
<path d="M171.07 25.8852L174.624 25.7468C174.665 25.9197 174.689 26.0961 174.696 26.2761C174.704 26.4678 174.694 26.6514 174.666 26.8269L172.383 26.9158L172.436 28.2747L174.248 28.2041C174.29 28.3886 174.315 28.5679 174.321 28.7421C174.329 28.928 174.318 29.1116 174.291 29.2929L172.479 29.3635L172.543 31.0185L174.886 30.9273C174.928 31.1001 174.952 31.2766 174.959 31.4566C174.967 31.6482 174.956 31.8318 174.928 32.0074L171.313 32.1482L171.07 25.8852Z" fill="#1A5B2B"/>
<path d="M176.231 25.7379C176.476 25.7237 176.733 25.7161 177.001 25.7149C177.269 25.7079 177.566 25.7143 177.891 25.7341C178.987 25.8007 179.803 26.124 180.338 26.7038C180.879 27.284 181.117 28.1194 181.05 29.2099C180.984 30.3063 180.645 31.095 180.033 31.5759C179.422 32.0569 178.544 32.2627 177.402 32.1932C177.106 32.1752 176.834 32.147 176.586 32.1087C176.338 32.0761 176.092 32.0379 175.851 31.9941L176.231 25.7379ZM177.191 31.0625C177.243 31.0715 177.309 31.0814 177.39 31.0921C177.471 31.1028 177.569 31.1117 177.685 31.1188C177.952 31.135 178.201 31.121 178.43 31.0767C178.666 31.027 178.873 30.9261 179.051 30.7739C179.229 30.6217 179.376 30.4123 179.491 30.1457C179.606 29.879 179.677 29.5311 179.703 29.1018C179.729 28.6842 179.7 28.3331 179.619 28.0487C179.537 27.7643 179.417 27.5357 179.259 27.3631C179.1 27.1904 178.913 27.0655 178.696 26.9883C178.486 26.9056 178.259 26.8569 178.015 26.842C177.934 26.8371 177.838 26.8342 177.728 26.8333C177.623 26.8269 177.53 26.8271 177.448 26.8338L177.191 31.0625Z" fill="#1A5B2B"/>
<path d="M184.936 26.5647C185.154 26.5753 185.365 26.6023 185.57 26.6458C185.774 26.6893 185.981 26.7511 186.19 26.8311L185.679 29.2357L187.734 29.6725L188.245 27.2679C188.462 27.2785 188.673 27.3056 188.878 27.3491C189.083 27.3926 189.289 27.4543 189.498 27.5343L188.195 33.6651C187.972 33.6533 187.761 33.6262 187.562 33.5839C187.351 33.5392 187.145 33.4775 186.942 33.3986L187.505 30.7468L185.45 30.31L184.887 32.9619C184.663 32.95 184.452 32.923 184.253 32.8807C184.043 32.836 183.836 32.7742 183.633 32.6954L184.936 26.5647Z" fill="#1A5B2B"/>
<path d="M192.581 28.4529C192.702 28.4744 192.816 28.4995 192.923 28.5284C193.031 28.5518 193.149 28.5843 193.276 28.626C193.386 28.6622 193.492 28.703 193.594 28.7485C193.697 28.7884 193.809 28.8375 193.931 28.8957L193.841 35.4625C193.604 35.4214 193.377 35.3655 193.162 35.2949C192.952 35.2261 192.753 35.1425 192.565 35.0441L192.625 33.7427L190.654 33.0961L189.923 34.1774C189.713 34.1454 189.517 34.0994 189.335 34.0397C189.131 33.9727 188.935 33.89 188.747 33.7916L192.581 28.4529ZM192.672 32.6481L192.805 29.9211L191.264 32.1862L192.672 32.6481Z" fill="#1A5B2B"/>
<path d="M196.868 29.9709C197.079 30.0244 197.275 30.0904 197.456 30.169C197.643 30.2498 197.831 30.3501 198.02 30.4699L195.965 35.2133L197.957 36.0761C197.933 36.1737 197.906 36.2663 197.874 36.3539C197.845 36.4362 197.814 36.5147 197.782 36.5893C197.745 36.6747 197.705 36.7588 197.663 36.8418C197.623 36.9195 197.575 37.0002 197.52 37.084L194.376 35.7223L196.868 29.9709Z" fill="#1A5B2B"/>
<path d="M202.502 32.6121C202.617 32.6553 202.725 32.7008 202.825 32.7486C202.927 32.7913 203.037 32.8447 203.154 32.9088C203.256 32.9645 203.353 33.0239 203.444 33.087C203.538 33.145 203.64 33.2137 203.749 33.2931L202.466 39.734C202.24 39.6504 202.028 39.5543 201.829 39.4457C201.635 39.3398 201.455 39.2215 201.288 39.0906L201.584 37.8218L199.763 36.8274L198.847 37.7577C198.647 37.6881 198.463 37.6073 198.294 37.5154C198.106 37.4123 197.928 37.2953 197.761 37.1644L202.502 32.6121ZM201.829 36.754L202.456 34.0967L200.528 36.0437L201.829 36.754Z" fill="#1A5B2B"/>
<path d="M206.472 34.8813C206.67 34.9728 206.851 35.0739 207.015 35.1845C207.184 35.2984 207.35 35.4317 207.514 35.5843L204.619 39.8748L206.421 41.0904C206.38 41.1821 206.336 41.2682 206.289 41.3487C206.245 41.4243 206.2 41.4958 206.154 41.5634C206.102 41.6405 206.048 41.7161 205.991 41.79C205.937 41.8591 205.876 41.9298 205.806 42.002L202.962 40.0835L206.472 34.8813Z" fill="#1A5B2B"/>
<path d="M137.316 131.905C137.377 131.941 137.439 131.981 137.501 132.024C137.563 132.068 137.623 132.114 137.681 132.163C137.739 132.211 137.795 132.262 137.85 132.315C137.904 132.367 137.952 132.419 137.994 132.469L136.036 134.825C135.908 134.787 135.776 134.737 135.638 134.675C135.504 134.609 135.371 134.533 135.239 134.446C135.103 134.363 134.971 134.276 134.843 134.185C134.714 134.093 134.597 134.003 134.489 133.914C134.131 133.616 133.855 133.292 133.662 132.942C133.469 132.592 133.361 132.231 133.339 131.857C133.32 131.478 133.384 131.092 133.53 130.699C133.68 130.309 133.914 129.921 134.234 129.537C134.554 129.152 134.896 128.85 135.26 128.63C135.628 128.406 136.001 128.266 136.38 128.211C136.764 128.159 137.141 128.188 137.51 128.299C137.888 128.408 138.245 128.603 138.581 128.882C138.836 129.094 139.042 129.296 139.201 129.488C139.362 129.675 139.495 129.861 139.599 130.046C139.505 130.141 139.404 130.221 139.299 130.284C139.201 130.347 139.091 130.411 138.969 130.476C138.878 130.332 138.771 130.182 138.649 130.028C138.532 129.878 138.364 129.712 138.145 129.529C137.907 129.332 137.655 129.194 137.387 129.116C137.124 129.041 136.855 129.028 136.578 129.079C136.31 129.128 136.038 129.242 135.761 129.421C135.487 129.595 135.223 129.836 134.966 130.145C134.702 130.462 134.511 130.769 134.394 131.065C134.285 131.36 134.237 131.646 134.25 131.921C134.266 132.192 134.339 132.446 134.469 132.682C134.606 132.917 134.793 133.134 135.03 133.331C135.174 133.45 135.304 133.547 135.423 133.623C135.545 133.694 135.654 133.75 135.748 133.791L137.316 131.905Z" fill="#1A5B2B"/>
<path d="M140.779 130.742C140.906 130.804 141.037 130.88 141.173 130.969C141.304 131.056 141.42 131.143 141.522 131.231L139.568 134.202C139.37 134.503 139.22 134.774 139.119 135.013C139.017 135.252 138.965 135.468 138.963 135.662C138.964 135.85 139.015 136.022 139.114 136.178C139.218 136.337 139.375 136.485 139.583 136.622C139.792 136.76 139.988 136.843 140.17 136.873C140.352 136.902 140.53 136.88 140.704 136.806C140.881 136.728 141.059 136.595 141.238 136.407C141.418 136.218 141.606 135.974 141.804 135.673L143.758 132.701C143.889 132.766 144.018 132.841 144.144 132.924C144.28 133.013 144.402 133.103 144.509 133.195L142.468 136.297C142.238 136.647 141.998 136.938 141.748 137.17C141.503 137.405 141.243 137.568 140.968 137.658C140.698 137.752 140.41 137.771 140.105 137.717C139.803 137.658 139.483 137.516 139.143 137.293C138.803 137.069 138.546 136.83 138.372 136.577C138.201 136.318 138.102 136.045 138.076 135.757C138.055 135.472 138.102 135.168 138.216 134.847C138.335 134.528 138.509 134.195 138.739 133.845L140.779 130.742Z" fill="#1A5B2B"/>
<path d="M146.014 139.512L143.917 138.387L142.857 139.46C142.784 139.434 142.714 139.406 142.644 139.376C142.575 139.345 142.507 139.312 142.441 139.276C142.369 139.238 142.299 139.197 142.23 139.153C142.166 139.113 142.108 139.072 142.058 139.031L146.818 134.472C146.89 134.498 146.966 134.529 147.045 134.565C147.125 134.601 147.206 134.641 147.288 134.685C147.359 134.723 147.432 134.766 147.506 134.812C147.58 134.858 147.65 134.906 147.717 134.955L146.544 141.438C146.477 141.415 146.404 141.386 146.324 141.35C146.244 141.314 146.169 141.276 146.097 141.238C146.031 141.202 145.963 141.162 145.894 141.119C145.83 141.078 145.77 141.036 145.714 140.993L146.014 139.512ZM144.491 137.814L146.173 138.717L146.841 135.444L144.491 137.814Z" fill="#1A5B2B"/>
<path d="M150.176 136.201C150.297 136.242 150.409 136.278 150.509 136.309C150.609 136.341 150.706 136.374 150.799 136.408C150.899 136.44 151.001 136.475 151.105 136.514C151.208 136.554 151.321 136.6 151.443 136.654C151.714 136.773 151.971 136.918 152.214 137.088C152.456 137.258 152.652 137.456 152.801 137.68C152.95 137.904 153.038 138.159 153.065 138.444C153.1 138.726 153.041 139.039 152.889 139.385C152.798 139.593 152.68 139.766 152.536 139.906C152.392 140.046 152.237 140.159 152.072 140.245C151.908 140.331 151.734 140.394 151.551 140.435C151.376 140.472 151.21 140.494 151.055 140.502L150.938 140.508L151.542 143.659C151.391 143.612 151.225 143.548 151.044 143.469C150.901 143.406 150.761 143.334 150.624 143.255L149.958 139.791L149.972 139.759L150.043 139.771C150.203 139.797 150.377 139.813 150.564 139.82C150.752 139.826 150.935 139.808 151.112 139.765C151.297 139.72 151.467 139.645 151.62 139.541C151.776 139.432 151.9 139.274 151.991 139.066C152.16 138.683 152.17 138.348 152.024 138.062C151.882 137.777 151.62 137.551 151.237 137.382C151.147 137.342 151.06 137.308 150.978 137.278C150.901 137.25 150.813 137.221 150.712 137.189L148.462 142.304C148.401 142.283 148.332 142.26 148.255 142.232C148.184 142.207 148.116 142.18 148.052 142.152C147.988 142.124 147.921 142.091 147.848 142.053C147.774 142.02 147.707 141.985 147.648 141.946L150.176 136.201Z" fill="#1A5B2B"/>
<path d="M156.051 143.738L153.806 142.946L152.922 144.168C152.847 144.154 152.773 144.137 152.7 144.118C152.626 144.098 152.554 144.076 152.483 144.05C152.406 144.023 152.331 143.994 152.256 143.961C152.186 143.93 152.124 143.899 152.067 143.867L156.077 138.635C156.152 138.649 156.231 138.668 156.316 138.692C156.4 138.715 156.486 138.743 156.573 138.774C156.65 138.801 156.729 138.831 156.809 138.866C156.889 138.9 156.966 138.937 157.038 138.975L156.868 145.561C156.798 145.549 156.721 145.531 156.637 145.507C156.553 145.484 156.473 145.459 156.396 145.431C156.325 145.406 156.252 145.377 156.177 145.345C156.107 145.314 156.042 145.282 155.98 145.248L156.051 143.738ZM154.287 142.293L156.087 142.928L156.247 139.592L154.287 142.293Z" fill="#1A5B2B"/>
<path d="M159.617 139.846C159.682 139.851 159.749 139.859 159.818 139.872C159.892 139.885 159.96 139.9 160.022 139.916C160.084 139.933 160.148 139.953 160.214 139.976C160.285 140.001 160.351 140.027 160.41 140.055L161.848 145.302L163.048 140.75C163.118 140.757 163.191 140.767 163.265 140.78C163.34 140.794 163.414 140.811 163.487 140.83C163.548 140.846 163.612 140.866 163.678 140.889C163.744 140.913 163.807 140.938 163.865 140.966L162.268 147.026C162.203 147.021 162.133 147.012 162.059 146.998C161.99 146.986 161.924 146.972 161.863 146.956C161.801 146.939 161.734 146.919 161.662 146.894C161.597 146.87 161.534 146.845 161.475 146.817L160.022 141.593L158.828 146.12C158.764 146.115 158.694 146.105 158.62 146.092C158.551 146.079 158.482 146.064 158.415 146.047C158.342 146.027 158.27 146.005 158.198 145.98C158.132 145.957 158.073 145.932 158.019 145.906L159.617 139.846Z" fill="#1A5B2B"/>
<path d="M166.091 142.241L164.493 141.948C164.492 141.889 164.495 141.824 164.502 141.755C164.509 141.686 164.518 141.62 164.53 141.557C164.541 141.494 164.555 141.432 164.573 141.37C164.591 141.303 164.611 141.242 164.633 141.187L168.699 141.934C168.7 141.993 168.698 142.055 168.692 142.118C168.686 142.182 168.677 142.245 168.666 142.308C168.654 142.37 168.639 142.438 168.62 142.511C168.601 142.579 168.581 142.64 168.56 142.694L166.962 142.401L165.973 147.783C165.839 147.776 165.695 147.758 165.542 147.73C165.382 147.701 165.236 147.665 165.102 147.623L166.091 142.241Z" fill="#1A5B2B"/>
<path d="M169.46 141.944L172.887 142.282C172.892 142.399 172.889 142.527 172.875 142.666C172.869 142.729 172.859 142.796 172.847 142.864C172.84 142.934 172.828 142.997 172.811 143.054L170.269 142.804L170.093 144.591L172.123 144.79C172.129 144.849 172.131 144.914 172.13 144.984C172.13 145.048 172.126 145.112 172.12 145.176C172.114 145.239 172.104 145.305 172.092 145.374C172.079 145.443 172.064 145.506 172.047 145.563L170.017 145.363L169.807 147.497L172.418 147.754C172.424 147.871 172.42 147.999 172.407 148.138C172.4 148.202 172.391 148.268 172.378 148.337C172.371 148.406 172.359 148.469 172.342 148.526L168.846 148.182L169.46 141.944Z" fill="#1A5B2B"/>
<path d="M173.903 142.317L177.346 142.354C177.362 142.471 177.369 142.599 177.368 142.738C177.367 142.802 177.364 142.869 177.357 142.938C177.356 143.008 177.35 143.072 177.337 143.13L174.783 143.102L174.764 144.898L176.804 144.92C176.815 144.978 176.823 145.042 176.828 145.112C176.833 145.176 176.835 145.24 176.834 145.304C176.834 145.368 176.83 145.435 176.824 145.504C176.817 145.574 176.808 145.638 176.795 145.696L174.756 145.674L174.732 147.818L177.356 147.846C177.372 147.963 177.38 148.091 177.378 148.23C177.378 148.294 177.374 148.361 177.367 148.431C177.367 148.5 177.36 148.564 177.348 148.622L173.835 148.584L173.903 142.317Z" fill="#1A5B2B"/>
<path d="M178.247 142.316C178.441 142.274 178.676 142.23 178.952 142.185C179.227 142.134 179.498 142.096 179.764 142.069C180.857 141.96 181.7 142.157 182.293 142.659C182.892 143.16 183.243 143.931 183.346 144.972C183.454 146.059 183.257 146.893 182.754 147.475C182.257 148.055 181.462 148.4 180.369 148.509C180.097 148.536 179.827 148.551 179.559 148.555C179.291 148.564 179.061 148.563 178.867 148.553L178.247 142.316ZM179.679 147.737C179.761 147.74 179.861 147.742 179.978 147.742C180.1 147.736 180.227 147.726 180.36 147.713C180.701 147.679 181.007 147.61 181.277 147.508C181.552 147.398 181.782 147.241 181.966 147.036C182.15 146.831 182.281 146.567 182.36 146.244C182.439 145.915 182.454 145.513 182.407 145.039C182.364 144.605 182.272 144.24 182.132 143.945C181.991 143.649 181.81 143.416 181.589 143.245C181.373 143.068 181.122 142.95 180.835 142.891C180.549 142.832 180.238 142.819 179.903 142.852C179.793 142.863 179.672 142.878 179.54 142.897C179.412 142.91 179.3 142.93 179.204 142.957L179.679 147.737Z" fill="#1A5B2B"/>
<path d="M192.516 146.823C192.541 146.954 192.557 147.084 192.564 147.214C192.578 147.347 192.573 147.479 192.55 147.61L190.519 147.707C190.493 147.547 190.479 147.413 190.478 147.306C190.476 147.199 190.484 147.079 190.499 146.944L192.516 146.823ZM189.763 147.002C189.323 147.107 188.925 147.121 188.567 147.045C188.208 146.963 187.889 146.81 187.61 146.584C187.334 146.352 187.097 146.057 186.899 145.699C186.707 145.339 186.557 144.931 186.448 144.475C186.34 144.018 186.291 143.586 186.302 143.179C186.318 142.77 186.398 142.403 186.541 142.077C186.688 141.745 186.904 141.461 187.188 141.227C187.472 140.993 187.833 140.824 188.273 140.72C188.713 140.616 189.112 140.604 189.471 140.686C189.83 140.768 190.147 140.925 190.422 141.157C190.702 141.382 190.938 141.675 191.13 142.034C191.323 142.393 191.473 142.801 191.581 143.258C191.689 143.714 191.738 144.146 191.728 144.554C191.717 144.961 191.638 145.331 191.491 145.664C191.348 145.99 191.134 146.269 190.85 146.503C190.565 146.732 190.203 146.898 189.763 147.002ZM189.586 146.258C189.868 146.191 190.098 146.08 190.276 145.925C190.457 145.763 190.591 145.562 190.677 145.321C190.763 145.08 190.805 144.805 190.803 144.496C190.801 144.187 190.756 143.846 190.668 143.474C190.581 143.108 190.469 142.786 190.332 142.509C190.193 142.226 190.032 142 189.849 141.829C189.664 141.652 189.455 141.535 189.221 141.477C188.991 141.413 188.735 141.414 188.454 141.481C188.172 141.548 187.94 141.662 187.758 141.824C187.581 141.98 187.449 142.178 187.363 142.418C187.276 142.653 187.234 142.928 187.237 143.243C187.239 143.552 187.283 143.89 187.37 144.256C187.458 144.628 187.571 144.953 187.708 145.23C187.845 145.507 188.006 145.734 188.191 145.91C188.376 146.087 188.583 146.207 188.813 146.272C189.047 146.33 189.305 146.325 189.586 146.258Z" fill="#1A5B2B"/>
<path d="M191.798 139.885C191.925 139.825 192.066 139.769 192.22 139.718C192.369 139.669 192.51 139.632 192.642 139.607L193.756 142.984C193.869 143.326 193.987 143.612 194.112 143.84C194.236 144.068 194.373 144.243 194.523 144.365C194.672 144.481 194.838 144.549 195.022 144.568C195.211 144.585 195.424 144.555 195.662 144.476C195.899 144.398 196.086 144.297 196.222 144.172C196.359 144.048 196.452 143.894 196.502 143.713C196.551 143.525 196.557 143.303 196.521 143.046C196.485 142.788 196.411 142.488 196.298 142.146L195.184 138.768C195.316 138.706 195.454 138.652 195.598 138.604C195.752 138.553 195.899 138.514 196.037 138.487L197.2 142.014C197.331 142.411 197.409 142.78 197.436 143.12C197.468 143.458 197.434 143.763 197.334 144.035C197.239 144.305 197.076 144.542 196.843 144.747C196.609 144.947 196.299 145.111 195.913 145.238C195.526 145.365 195.18 145.418 194.873 145.397C194.564 145.37 194.289 145.278 194.047 145.119C193.81 144.958 193.602 144.733 193.421 144.444C193.245 144.153 193.092 143.809 192.961 143.412L191.798 139.885Z" fill="#1A5B2B"/>
<path d="M201.919 141.288L199.724 142.207L199.889 143.707C199.824 143.747 199.758 143.784 199.69 143.819C199.623 143.853 199.554 143.885 199.485 143.914C199.41 143.946 199.333 143.974 199.256 144C199.184 144.024 199.117 144.043 199.053 144.057L198.513 137.488C198.578 137.448 198.65 137.409 198.728 137.37C198.806 137.331 198.888 137.293 198.974 137.257C199.049 137.226 199.127 137.196 199.21 137.168C199.293 137.139 199.374 137.115 199.453 137.094L203.749 142.09C203.689 142.128 203.62 142.166 203.542 142.205C203.463 142.244 203.387 142.279 203.312 142.311C203.242 142.34 203.169 142.368 203.091 142.394C203.019 142.418 202.949 142.438 202.88 142.454L201.919 141.288ZM199.641 141.401L201.402 140.663L199.282 138.083L199.641 141.401Z" fill="#1A5B2B"/>
<path d="M201.979 135.97C202.031 135.931 202.086 135.893 202.146 135.857C202.211 135.818 202.28 135.78 202.353 135.743C202.42 135.709 202.489 135.678 202.559 135.649C202.629 135.621 202.698 135.596 202.766 135.575L205.227 140.475L207.423 139.371C207.462 139.423 207.498 139.48 207.529 139.543C207.565 139.602 207.597 139.658 207.623 139.71C207.685 139.835 207.736 139.956 207.776 140.072L204.792 141.571L201.979 135.97Z" fill="#1A5B2B"/>
<path d="M205.703 134.054C205.758 134.01 205.817 133.967 205.88 133.925C205.943 133.882 206.007 133.843 206.073 133.806C206.138 133.769 206.205 133.734 206.274 133.702C206.343 133.67 206.41 133.642 206.476 133.618L209.548 139.071C209.493 139.116 209.434 139.159 209.371 139.201C209.313 139.24 209.249 139.28 209.178 139.319C209.112 139.357 209.043 139.392 208.969 139.427C208.9 139.459 208.835 139.486 208.774 139.507L205.703 134.054Z" fill="#1A5B2B"/>
<path d="M208.994 133L207.625 133.88C207.584 133.838 207.542 133.789 207.499 133.733C207.457 133.678 207.418 133.623 207.384 133.569C207.349 133.516 207.317 133.461 207.288 133.404C207.255 133.342 207.228 133.284 207.206 133.228L210.692 130.988C210.733 131.03 210.773 131.077 210.812 131.127C210.852 131.178 210.889 131.23 210.923 131.284C210.958 131.338 210.993 131.398 211.029 131.464C211.062 131.526 211.089 131.584 211.111 131.639L209.741 132.52L212.707 137.133C212.604 137.22 212.487 137.306 212.355 137.39C212.218 137.478 212.086 137.552 211.96 137.613L208.994 133Z" fill="#1A5B2B"/>
<path d="M214.8 132.842L210.797 130.91C210.85 130.855 210.909 130.798 210.975 130.74C211.04 130.682 211.107 130.627 211.176 130.573C211.236 130.527 211.302 130.48 211.375 130.431C211.452 130.379 211.522 130.336 211.584 130.303L214.645 131.871L213.889 128.523C213.941 128.468 213.996 128.415 214.052 128.364C214.108 128.313 214.169 128.263 214.233 128.213C214.297 128.164 214.364 128.116 214.432 128.071C214.499 128.026 214.567 127.985 214.634 127.948L215.51 132.293L216.912 134.108C216.859 134.163 216.804 134.216 216.748 134.267C216.692 134.318 216.634 134.366 216.574 134.412C216.514 134.459 216.45 134.504 216.382 134.549C216.319 134.591 216.259 134.627 216.201 134.656L214.8 132.842Z" fill="#1A5B2B"/>
<path d="M215.526 43.034L214.453 43.7261L213.46 42.9231L213.788 44.1594L212.71 44.8515L213.988 44.9254L214.321 46.1617L214.781 44.9677L216.059 45.0364L215.066 44.228L215.526 43.034Z" fill="#1A5B2B"/>
<path d="M219.663 46.843L218.543 47.4611L217.607 46.5789L217.845 47.8363L216.725 48.4544L217.993 48.6182L218.231 49.8756L218.78 48.7185L220.048 48.877L219.118 48L219.663 46.843Z" fill="#1A5B2B"/>
<path d="M223.588 51.075L222.436 51.6244L221.554 50.6946L221.723 51.9678L220.566 52.5173L221.824 52.7497L221.993 54.0177L222.605 52.8924L223.863 53.1248L222.981 52.2003L223.588 51.075Z" fill="#1A5B2B"/>
<path d="M136.627 43.034L137.7 43.7261L138.693 42.9231L138.365 44.1594L139.443 44.8515L138.165 44.9254L137.832 46.1617L137.372 44.9677L136.094 45.0364L137.087 44.228L136.627 43.034Z" fill="#1A5B2B"/>
<path d="M132.49 46.843L133.61 47.4611L134.545 46.5789L134.308 47.8363L135.428 48.4544L134.16 48.6182L133.922 49.8756L133.372 48.7185L132.104 48.877L133.034 48L132.49 46.843Z" fill="#1A5B2B"/>
<path d="M128.565 51.075L129.716 51.6244L130.599 50.6946L130.43 51.9678L131.587 52.5173L130.329 52.7497L130.16 54.0177L129.547 52.8924L128.29 53.1248L129.172 52.2003L128.565 51.075Z" fill="#1A5B2B"/>
<path d="M223.916 125.151L222.685 124.786L221.961 125.843L221.929 124.559L220.698 124.194L221.908 123.772L221.876 122.488L222.653 123.507L223.863 123.08L223.134 124.136L223.916 125.151Z" fill="#1A5B2B"/>
<path d="M226.816 120.332L225.564 120.057L224.914 121.162L224.793 119.888L223.541 119.614L224.713 119.101L224.587 117.828L225.437 118.784L226.61 118.272L225.966 119.376L226.816 120.332Z" fill="#1A5B2B"/>
<path d="M229.394 115.17L228.131 114.97L227.545 116.106L227.35 114.838L226.087 114.632L227.233 114.056L227.038 112.793L227.936 113.702L229.082 113.126L228.496 114.262L229.394 115.17Z" fill="#1A5B2B"/>
<path d="M126.668 125.151L127.899 124.786L128.623 125.843L128.655 124.559L129.886 124.194L128.676 123.772L128.708 122.488L127.931 123.507L126.721 123.08L127.45 124.136L126.668 125.151Z" fill="#1A5B2B"/>
<path d="M123.768 120.332L125.02 120.057L125.67 121.162L125.791 119.888L127.043 119.614L125.871 119.101L125.997 117.828L125.147 118.784L123.974 118.272L124.618 119.376L123.768 120.332Z" fill="#1A5B2B"/>
<path d="M121.189 115.17L122.452 114.97L123.039 116.106L123.234 114.838L124.497 114.632L123.356 114.056L123.546 112.793L122.648 113.702L121.501 113.126L122.088 114.262L121.189 115.17Z" fill="#1A5B2B"/>
<path fill-rule="evenodd" clip-rule="evenodd" d="M165.177 77.5805C169.636 78.0243 172.6 77.496 174.624 76.1224C177.381 74.2468 178.998 69.7825 179.378 66.6391C179.378 73.2113 179.907 77.3639 189.158 74.0355C192.56 72.8045 195.291 72.2075 197.98 72.6883C198.404 71.9361 198.768 71.1517 199.069 70.3426C192.047 69.8142 186.632 63.1891 182.897 70.8286C184.773 68.6414 188.587 68.7153 192.872 70.9448C191.107 71.1932 184.25 73.4015 182.099 71.4732C180.329 69.8512 180.895 66.6179 180.837 61.8736C180.789 58.4132 180.837 54.0493 180.578 52.6228C180.16 54.1479 179.178 55.4569 177.83 56.284C179.812 66.9825 176.092 76.471 165.177 77.5805Z" fill="#416715"/>
<path fill-rule="evenodd" clip-rule="evenodd" d="M179.389 66.7237C180.541 60.4684 180.588 52.5859 180.588 52.5859C180.171 54.111 179.189 55.4201 177.841 56.2472C179.812 66.9826 176.092 76.4712 165.161 77.5806C171.676 78.2305 175.004 76.7934 176.869 73.6922C178.364 71.2303 178.861 69.5819 179.389 66.7237Z" fill="#416715"/>
<path fill-rule="evenodd" clip-rule="evenodd" d="M156.936 67.6484C154.357 70.7549 152.397 75.8109 157.696 77.3166C160.37 78.0721 163.978 76.8569 165.832 75.0448C169.261 72.1919 166.63 59.3908 166.139 57.4624C166.844 57.4193 167.551 57.4423 168.252 57.5311C167.454 56.6752 165.547 54.1235 164.966 52.417C165.014 53.6268 164.073 55.3333 163.439 56.0043C165.584 61.652 166.139 69.5398 165.753 72.2447C165.389 74.7014 150.76 78.537 156.936 67.6484Z" fill="#416715"/>
<path fill-rule="evenodd" clip-rule="evenodd" d="M169.245 57.8745C169.614 59.1989 169.755 60.5762 169.663 61.9478C173.689 63.7071 175.638 67.7593 176.092 68.8741C175.865 63.5909 172.156 59.2798 169.245 57.8745Z" fill="#416715"/>
<path fill-rule="evenodd" clip-rule="evenodd" d="M165.732 72.2446C165.383 74.7012 150.759 78.5368 156.92 67.6482C154.341 70.7547 152.381 75.8107 157.68 77.3164C159.45 77.8447 161.627 77.4538 163.434 76.6296C165.32 75.573 165.732 73.3963 165.732 72.2446Z" fill="#416715"/>
<path fill-rule="evenodd" clip-rule="evenodd" d="M182.907 70.813C184.44 69.0272 187.34 68.6997 190.547 69.9148C191.116 70.1278 191.672 70.3748 192.211 70.6545C194.1 71.43 196.03 72.1037 197.991 72.6726C198.415 71.9204 198.778 71.1361 199.079 70.3269C192.058 69.8144 186.643 63.1735 182.907 70.813Z" fill="#416715"/>
<path fill-rule="evenodd" clip-rule="evenodd" d="M164.332 76.7089C168.786 77.1527 171.728 76.6191 173.778 75.2455C176.536 73.3752 178.148 68.9057 178.533 65.7675C178.533 72.3345 179.062 76.487 188.318 73.1639C191.715 71.9382 194.446 71.3359 197.135 71.8167C197.561 71.0665 197.926 70.2839 198.229 69.4763C191.208 68.9479 185.787 62.3176 182.057 69.9623C183.933 67.7751 187.747 67.849 192.026 70.0733C190.262 70.3216 183.404 72.5352 181.259 70.6016C179.484 68.9796 180.055 65.7463 179.991 61.0021C179.949 57.5363 179.991 53.1724 179.732 51.7512C179.313 53.274 178.334 54.582 176.991 55.4125C178.94 66.1109 175.215 75.5942 164.332 76.7089Z" fill="#FFFAD2"/>
<path fill-rule="evenodd" clip-rule="evenodd" d="M178.512 65.8466C179.669 59.5966 179.711 51.7141 179.711 51.7141C179.292 53.2369 178.313 54.5449 176.969 55.3754C178.94 66.1108 175.215 75.5941 164.29 76.7088C170.804 77.3586 174.127 75.9216 175.997 72.8151C177.492 70.3584 177.984 68.7048 178.512 65.8466Z" fill="#FFFAD2"/>
<path fill-rule="evenodd" clip-rule="evenodd" d="M156.048 66.7765C153.465 69.8777 151.504 74.939 156.803 76.4394C159.482 77.2002 163.085 75.985 164.94 74.1729C168.368 71.3147 165.737 58.5136 165.251 56.5852C165.956 56.5445 166.664 56.5675 167.365 56.6539C166.567 55.8033 164.66 53.2515 164.078 51.5398C164.131 52.7549 163.186 54.4561 162.552 55.1271C164.697 60.7748 165.257 68.6678 164.866 71.3728C164.506 73.8295 149.888 77.6651 156.048 66.7765Z" fill="#FFFAD2"/>
<path fill-rule="evenodd" clip-rule="evenodd" d="M168.368 56.9973C168.738 58.3232 168.881 59.7023 168.791 61.0759C172.811 62.8299 174.761 66.8874 175.215 68.0022C174.988 62.7137 171.279 58.4026 168.368 56.9973Z" fill="#FFFAD2"/>
<path fill-rule="evenodd" clip-rule="evenodd" d="M164.86 71.373C164.511 73.8296 149.893 77.6652 156.053 66.7766C153.47 69.8778 151.51 74.9391 156.809 76.4395C158.578 76.9678 160.755 76.5822 162.567 75.7527C164.443 74.6961 164.86 72.5247 164.86 71.373Z" fill="#FFFAD2"/>
<path fill-rule="evenodd" clip-rule="evenodd" d="M182.036 69.9411C183.563 68.1554 186.463 67.8278 189.67 69.043C190.24 69.2551 190.798 69.5003 191.34 69.7773C193.226 70.5552 195.154 71.2289 197.114 71.7955C197.54 71.0453 197.905 70.2627 198.208 69.4551C191.186 68.9373 185.766 62.2964 182.036 69.9411Z" fill="#FFFAD2"/>
<path d="M230.139 107.04C232.859 99.3676 233.928 91.2076 233.276 83.0939C232.624 74.9802 230.266 67.0956 226.356 59.9561" stroke="#1A5B2B" stroke-width="2.75" stroke-miterlimit="10"/>
<path d="M125.083 59.9561C121.179 67.0936 118.824 74.9747 118.173 83.0843C117.523 91.1939 118.59 99.3496 121.306 107.019" stroke="#1A5B2B" stroke-width="2.75" stroke-miterlimit="10"/>
</g>
<defs>
<filter id="filter0_ddddii_413_404" x="0" y="0" width="355" height="257" filterUnits="userSpaceOnUse" color-interpolation-filters="sRGB">
<feFlood flood-opacity="0" result="BackgroundImageFix"/>
<feColorMatrix in="SourceAlpha" type="matrix" values="0 0 0 0 0 0 0 0 0 0 0 0 0 0 0 0 0 0 127 0" result="hardAlpha"/>
<feOffset dx="1" dy="1"/>
<feGaussianBlur stdDeviation="1.5"/>
<feColorMatrix type="matrix" values="0 0 0 0 0.537255 0 0 0 0 0.537255 0 0 0 0 0.537255 0 0 0 0.9 0"/>
<feBlend mode="normal" in2="BackgroundImageFix" result="effect1_dropShadow_413_404"/>
<feColorMatrix in="SourceAlpha" type="matrix" values="0 0 0 0 0 0 0 0 0 0 0 0 0 0 0 0 0 0 127 0" result="hardAlpha"/>
<feOffset dx="-1" dy="-1"/>
<feGaussianBlur stdDeviation="1"/>
<feColorMatrix type="matrix" values="0 0 0 0 1 0 0 0 0 1 0 0 0 0 1 0 0 0 0.9 0"/>
<feBlend mode="normal" in2="effect1_dropShadow_413_404" result="effect2_dropShadow_413_404"/>
<feColorMatrix in="SourceAlpha" type="matrix" values="0 0 0 0 0 0 0 0 0 0 0 0 0 0 0 0 0 0 127 0" result="hardAlpha"/>
<feOffset dx="1" dy="-1"/>
<feGaussianBlur stdDeviation="1"/>
<feColorMatrix type="matrix" values="0 0 0 0 0.537255 0 0 0 0 0.537255 0 0 0 0 0.537255 0 0 0 0.2 0"/>
<feBlend mode="normal" in2="effect2_dropShadow_413_404" result="effect3_dropShadow_413_404"/>
<feColorMatrix in="SourceAlpha" type="matrix" values="0 0 0 0 0 0 0 0 0 0 0 0 0 0 0 0 0 0 127 0" result="hardAlpha"/>
<feOffset dx="-1" dy="1"/>
<feGaussianBlur stdDeviation="1"/>
<feColorMatrix type="matrix" values="0 0 0 0 0.537255 0 0 0 0 0.537255 0 0 0 0 0.537255 0 0 0 0.2 0"/>
<feBlend mode="normal" in2="effect3_dropShadow_413_404" result="effect4_dropShadow_413_404"/>
<feBlend mode="normal" in="SourceGraphic" in2="effect4_dropShadow_413_404" result="shape"/>
<feColorMatrix in="SourceAlpha" type="matrix" values="0 0 0 0 0 0 0 0 0 0 0 0 0 0 0 0 0 0 127 0" result="hardAlpha"/>
<feOffset dx="-1" dy="-1"/>
<feGaussianBlur stdDeviation="1"/>
<feComposite in2="hardAlpha" operator="arithmetic" k2="-1" k3="1"/>
<feColorMatrix type="matrix" values="0 0 0 0 0.537255 0 0 0 0 0.537255 0 0 0 0 0.537255 0 0 0 0.5 0"/>
<feBlend mode="normal" in2="shape" result="effect5_innerShadow_413_404"/>
<feColorMatrix in="SourceAlpha" type="matrix" values="0 0 0 0 0 0 0 0 0 0 0 0 0 0 0 0 0 0 127 0" result="hardAlpha"/>
<feOffset dx="1" dy="1"/>
<feGaussianBlur stdDeviation="1"/>
<feComposite in2="hardAlpha" operator="arithmetic" k2="-1" k3="1"/>
<feColorMatrix type="matrix" values="0 0 0 0 1 0 0 0 0 1 0 0 0 0 1 0 0 0 0.3 0"/>
<feBlend mode="normal" in2="effect5_innerShadow_413_404" result="effect6_innerShadow_413_404"/>
</filter>
<linearGradient id="paint0_linear_413_404" x1="3" y1="3" x2="239.923" y2="332.797" gradientUnits="userSpaceOnUse">
<stop stop-color="white"/>
<stop offset="1" stop-color="#E8E8E8"/>
</linearGradient>
<linearGradient id="paint1_linear_413_404" x1="221.536" y1="26.0076" x2="128.188" y2="151.763" gradientUnits="userSpaceOnUse">
<stop stop-color="#3B6E25"/>
<stop offset="0.45" stop-color="#95C11F"/>
<stop offset="1" stop-color="#214519"/>
</linearGradient>
<linearGradient id="paint2_linear_413_404" x1="234.413" y1="35.9811" x2="132.606" y2="125.732" gradientUnits="userSpaceOnUse">
<stop stop-color="#D69918"/>
<stop offset="0.06" stop-color="#FFDB00"/>
<stop offset="0.13" stop-color="#FFF265"/>
<stop offset="0.24" stop-color="#FFDB00"/>
<stop offset="0.36" stop-color="#D69918"/>
<stop offset="0.5" stop-color="#FFF265"/>
<stop offset="0.63" stop-color="#FFDB00"/>
<stop offset="0.76" stop-color="#DD9E19"/>
<stop offset="0.88" stop-color="#FFDB00"/>
<stop offset="1" stop-color="#F6AE1B"/>
</linearGradient>
<linearGradient id="paint3_linear_413_404" x1="149.83" y1="143.435" x2="171.163" y2="100.473" gradientUnits="userSpaceOnUse">
<stop stop-color="#FFF37C"/>
<stop offset="1" stop-color="#FFF37C" stop-opacity="0.2"/>
</linearGradient>
<linearGradient id="paint4_linear_413_404" x1="223.556" y1="45.5698" x2="140.621" y2="118.684" gradientUnits="userSpaceOnUse">
<stop stop-color="#D69918"/>
<stop offset="0.06" stop-color="#FFDB00"/>
<stop offset="0.13" stop-color="#FFF265"/>
<stop offset="0.24" stop-color="#FFDB00"/>
<stop offset="0.36" stop-color="#D69918"/>
<stop offset="0.5" stop-color="#FFF265"/>
<stop offset="0.63" stop-color="#FFDB00"/>
<stop offset="0.76" stop-color="#DD9E19"/>
<stop offset="0.88" stop-color="#FFDB00"/>
<stop offset="1" stop-color="#F6AE1B"/>
</linearGradient>
<linearGradient id="paint5_linear_413_404" x1="227.181" y1="42.3576" x2="124.264" y2="133.091" gradientUnits="userSpaceOnUse">
<stop stop-color="#D69918"/>
<stop offset="0.06" stop-color="#FFDB00"/>
<stop offset="0.13" stop-color="#FFF265"/>
<stop offset="0.24" stop-color="#FFDB00"/>
<stop offset="0.36" stop-color="#D69918"/>
<stop offset="0.5" stop-color="#FFF265"/>
<stop offset="0.63" stop-color="#FFDB00"/>
<stop offset="0.76" stop-color="#DD9E19"/>
<stop offset="0.88" stop-color="#FFDB00"/>
<stop offset="1" stop-color="#F6AE1B"/>
</linearGradient>
<linearGradient id="paint6_linear_413_404" x1="211.754" y1="56.279" x2="140.029" y2="119.508" gradientUnits="userSpaceOnUse">
<stop stop-color="#D69918"/>
<stop offset="0.06" stop-color="#FFDB00"/>
<stop offset="0.13" stop-color="#FFF265"/>
<stop offset="0.24" stop-color="#FFDB00"/>
<stop offset="0.36" stop-color="#D69918"/>
<stop offset="0.5" stop-color="#FFF265"/>
<stop offset="0.63" stop-color="#FFDB00"/>
<stop offset="0.76" stop-color="#DD9E19"/>
<stop offset="0.88" stop-color="#FFDB00"/>
<stop offset="1" stop-color="#F6AE1B"/>
</linearGradient>
<clipPath id="clip0_413_404">
<rect width="150" height="150" fill="white" transform="translate(102 14)"/>
</clipPath>
</defs>
</svg>
