<svg width="515" height="257" viewBox="0 0 515 257" fill="none" xmlns="http://www.w3.org/2000/svg">
<g filter="url(#filter0_ddddii_413_482)">
<path fill-rule="evenodd" clip-rule="evenodd" d="M324.752 164C317.274 164 313.53 151.192 318.687 145.778C333.132 130.617 342 110.094 342 87.5C342 40.8319 304.168 3 257.5 3C210.832 3 173 40.8319 173 87.5C173 110.094 181.868 130.617 196.313 145.778C201.47 151.192 197.726 164 190.248 164H20C10.6112 164 3 171.611 3 181V236C3 245.389 10.6112 253 20 253H494C503.389 253 511 245.389 511 236V181C511 171.611 503.389 164 494 164H324.752Z" fill="url(#paint0_linear_413_482)"/>
</g>
<path d="M111.234 204V188.596H114.532L114.521 201.368H120.945V204H111.234ZM123.889 188.596H127.187V204H123.889V188.596ZM140.099 188.596H143.611L138.949 204H133.911L129.26 188.596H132.772L136.436 201.164L140.099 188.596ZM157.888 194.063C157.888 195.238 157.601 196.262 157.028 197.136C156.463 198.009 155.653 198.65 154.601 199.059L157.651 204H154.332L151.593 199.521H148.972V204H145.674V188.596H151.894C153.77 188.596 155.238 189.104 156.298 190.121C157.358 191.131 157.888 192.445 157.888 194.063ZM148.961 196.889H151.55C152.431 196.889 153.158 196.62 153.73 196.083C154.303 195.539 154.59 194.869 154.59 194.074C154.59 193.272 154.303 192.599 153.73 192.055C153.158 191.503 152.431 191.228 151.55 191.228H148.961V196.889ZM170.821 204L169.983 201.336H163.656L162.829 204H159.445L164.29 188.596H169.36L174.216 204H170.821ZM164.483 198.704H169.156L166.825 191.281L164.483 198.704ZM176.268 188.596H179.565V204H176.268V188.596ZM193.702 192.57L190.404 192.828C190.247 192.241 189.967 191.786 189.566 191.464C189.165 191.142 188.664 190.98 188.062 190.98C187.339 190.98 186.77 191.149 186.354 191.485C185.939 191.815 185.731 192.27 185.731 192.85C185.731 193.064 185.778 193.261 185.871 193.44C185.971 193.619 186.086 193.766 186.215 193.881C186.351 193.988 186.541 194.103 186.784 194.225C187.035 194.339 187.253 194.429 187.439 194.493C187.633 194.55 187.891 194.629 188.213 194.729C188.822 194.916 189.326 195.077 189.728 195.213C190.129 195.342 190.558 195.499 191.017 195.686C191.475 195.865 191.847 196.044 192.134 196.223C192.427 196.395 192.717 196.599 193.004 196.835C193.29 197.071 193.509 197.322 193.659 197.587C193.817 197.845 193.942 198.142 194.035 198.479C194.128 198.815 194.175 199.184 194.175 199.585C194.168 200.58 193.91 201.425 193.401 202.12C192.893 202.815 192.198 203.33 191.317 203.667C190.437 204.004 189.395 204.172 188.191 204.172C186.444 204.172 185.019 203.789 183.916 203.022C182.82 202.256 182.208 201.153 182.079 199.714L185.366 199.456C185.488 200.115 185.803 200.623 186.312 200.981C186.827 201.34 187.45 201.519 188.181 201.519C188.968 201.519 189.602 201.361 190.082 201.046C190.569 200.731 190.82 200.269 190.834 199.66C190.841 199.395 190.78 199.148 190.651 198.919C190.522 198.69 190.358 198.496 190.157 198.339C189.957 198.181 189.688 198.024 189.352 197.866C189.015 197.709 188.707 197.583 188.428 197.49C188.148 197.39 187.798 197.275 187.375 197.146C186.902 197.01 186.523 196.896 186.236 196.803C185.95 196.702 185.628 196.584 185.27 196.448C184.911 196.312 184.625 196.183 184.41 196.062C184.202 195.94 183.973 195.797 183.723 195.632C183.479 195.46 183.289 195.285 183.153 195.105C183.017 194.919 182.888 194.708 182.767 194.472C182.645 194.228 182.559 193.963 182.509 193.677C182.459 193.39 182.434 193.072 182.434 192.721C182.434 191.783 182.684 190.988 183.186 190.336C183.687 189.677 184.353 189.194 185.184 188.886C186.021 188.578 186.985 188.424 188.073 188.424C189.642 188.424 190.931 188.778 191.94 189.487C192.957 190.196 193.545 191.224 193.702 192.57ZM204.24 204.172C203.109 204.172 202.045 203.979 201.05 203.592C200.062 203.198 199.206 202.657 198.482 201.97C197.766 201.282 197.197 200.448 196.774 199.467C196.359 198.486 196.151 197.433 196.151 196.309C196.151 195.177 196.359 194.121 196.774 193.14C197.197 192.151 197.766 191.317 198.482 190.637C199.206 189.949 200.062 189.409 201.05 189.015C202.045 188.621 203.109 188.424 204.24 188.424C205.365 188.424 206.421 188.621 207.409 189.015C208.405 189.409 209.26 189.949 209.977 190.637C210.7 191.317 211.269 192.151 211.685 193.14C212.107 194.121 212.318 195.177 212.318 196.309C212.318 197.433 212.107 198.486 211.685 199.467C211.269 200.448 210.7 201.282 209.977 201.97C209.26 202.657 208.405 203.198 207.409 203.592C206.421 203.979 205.365 204.172 204.24 204.172ZM204.24 201.153C205.121 201.153 205.93 200.946 206.668 200.53C207.406 200.115 207.989 199.535 208.419 198.79C208.856 198.038 209.074 197.207 209.074 196.298C209.074 194.909 208.605 193.756 207.667 192.839C206.729 191.915 205.587 191.453 204.24 191.453C202.887 191.453 201.737 191.915 200.792 192.839C199.854 193.763 199.385 194.919 199.385 196.309C199.385 197.691 199.854 198.844 200.792 199.768C201.737 200.691 202.887 201.153 204.24 201.153ZM224.64 188.596H227.938V204H223.834L217.937 193.462V204H214.639V188.596H218.731L224.64 199.145V188.596ZM239.303 188.596H242.063V204H238.755V191.228L235.726 191.915L235.5 189.348L239.303 188.596ZM251.27 204.172C249.171 204.172 247.499 203.463 246.253 202.045C245.007 200.62 244.384 198.704 244.384 196.298C244.384 193.892 245.007 191.979 246.253 190.562C247.499 189.136 249.171 188.424 251.27 188.424C253.361 188.424 255.029 189.136 256.275 190.562C257.529 191.979 258.155 193.892 258.155 196.298C258.155 198.704 257.529 200.62 256.275 202.045C255.029 203.463 253.361 204.172 251.27 204.172ZM248.552 199.843C249.182 200.716 250.088 201.153 251.27 201.153C252.451 201.153 253.354 200.716 253.977 199.843C254.607 198.962 254.922 197.78 254.922 196.298C254.922 194.808 254.61 193.63 253.987 192.764C253.364 191.89 252.458 191.453 251.27 191.453C250.081 191.453 249.175 191.89 248.552 192.764C247.929 193.63 247.617 194.808 247.617 196.298C247.617 197.78 247.929 198.962 248.552 199.843ZM266.652 204.172C264.554 204.172 262.882 203.463 261.636 202.045C260.39 200.62 259.767 198.704 259.767 196.298C259.767 193.892 260.39 191.979 261.636 190.562C262.882 189.136 264.554 188.424 266.652 188.424C268.743 188.424 270.412 189.136 271.658 190.562C272.911 191.979 273.538 193.892 273.538 196.298C273.538 198.704 272.911 200.62 271.658 202.045C270.412 203.463 268.743 204.172 266.652 204.172ZM263.935 199.843C264.565 200.716 265.471 201.153 266.652 201.153C267.834 201.153 268.736 200.716 269.359 199.843C269.99 198.962 270.305 197.78 270.305 196.298C270.305 194.808 269.993 193.63 269.37 192.764C268.747 191.89 267.841 191.453 266.652 191.453C265.464 191.453 264.558 191.89 263.935 192.764C263.312 193.63 263 194.808 263 196.298C263 197.78 263.312 198.962 263.935 199.843ZM280.166 197.189C278.898 197.189 277.821 196.792 276.933 195.997C276.045 195.195 275.601 194.146 275.601 192.85C275.601 191.546 276.045 190.497 276.933 189.702C277.821 188.907 278.898 188.51 280.166 188.51C280.99 188.51 281.745 188.682 282.433 189.025C283.12 189.369 283.675 189.878 284.098 190.551C284.52 191.217 284.731 191.983 284.731 192.85C284.731 193.501 284.61 194.103 284.366 194.654C284.123 195.199 283.79 195.657 283.367 196.029C282.952 196.395 282.465 196.681 281.906 196.889C281.355 197.089 280.775 197.189 280.166 197.189ZM287.653 188.596L289.189 189.176L283.679 204L282.143 203.431L287.653 188.596ZM280.166 195.105C280.768 195.105 281.28 194.894 281.702 194.472C282.125 194.042 282.336 193.501 282.336 192.85C282.336 192.198 282.125 191.661 281.702 191.238C281.28 190.809 280.768 190.594 280.166 190.594C279.557 190.594 279.042 190.809 278.619 191.238C278.204 191.661 277.996 192.198 277.996 192.85C277.996 193.501 278.204 194.042 278.619 194.472C279.042 194.894 279.557 195.105 280.166 195.105ZM291.155 204.086C289.888 204.086 288.81 203.688 287.922 202.894C287.034 202.099 286.59 201.053 286.59 199.757C286.59 198.453 287.034 197.404 287.922 196.609C288.81 195.807 289.888 195.406 291.155 195.406C292.43 195.406 293.511 195.807 294.399 196.609C295.287 197.404 295.731 198.453 295.731 199.757C295.731 200.623 295.52 201.39 295.098 202.056C294.675 202.722 294.12 203.227 293.433 203.57C292.745 203.914 291.986 204.086 291.155 204.086ZM289.619 201.379C290.042 201.801 290.554 202.013 291.155 202.013C291.757 202.013 292.269 201.801 292.691 201.379C293.121 200.949 293.336 200.409 293.336 199.757C293.336 199.105 293.125 198.568 292.702 198.146C292.28 197.716 291.764 197.501 291.155 197.501C290.554 197.501 290.042 197.716 289.619 198.146C289.197 198.568 288.985 199.105 288.985 199.757C288.985 200.409 289.197 200.949 289.619 201.379ZM313.188 188.596H316.475V204H313.177V198.049H307.032V204H303.734V188.596H307.021V195.428H313.188V188.596ZM329.086 188.596H332.728L327.281 198.79V204H323.983V198.79L318.537 188.596H322.189L325.638 195.567L329.086 188.596ZM340.773 195.256H349.195V196.298C349.195 197.429 348.984 198.486 348.562 199.467C348.146 200.448 347.577 201.282 346.854 201.97C346.137 202.657 345.282 203.198 344.286 203.592C343.298 203.979 342.242 204.172 341.117 204.172C339.986 204.172 338.922 203.979 337.927 203.592C336.938 203.198 336.083 202.657 335.359 201.97C334.643 201.282 334.074 200.448 333.651 199.467C333.236 198.486 333.028 197.433 333.028 196.309C333.028 195.177 333.236 194.121 333.651 193.14C334.074 192.151 334.643 191.317 335.359 190.637C336.083 189.949 336.938 189.409 337.927 189.015C338.922 188.621 339.986 188.424 341.117 188.424C342.664 188.424 344.057 188.775 345.296 189.477C346.535 190.178 347.487 191.145 348.153 192.377L345.242 193.763C344.834 193.047 344.261 192.484 343.523 192.076C342.793 191.661 341.991 191.453 341.117 191.453C339.764 191.453 338.614 191.915 337.669 192.839C336.731 193.763 336.262 194.919 336.262 196.309C336.262 197.691 336.731 198.844 337.669 199.768C338.607 200.691 339.757 201.153 341.117 201.153C342.127 201.153 343.051 200.835 343.889 200.197C344.727 199.56 345.321 198.772 345.672 197.834H340.773V195.256ZM351.516 188.596H354.813V204H351.516V188.596ZM362 187.296L359.486 183.096H362.58L364.417 187.296H362ZM357.768 188.596H368.306V191.228H361.065V195.159H367.64V197.78H361.065V201.368H368.639V204H357.768V188.596ZM381.583 188.596H384.881V204H380.777L374.88 193.462V204H371.582V188.596H375.675L381.583 199.145V188.596ZM387.824 188.596H398.362V191.228H391.122V195.159H397.696V197.78H391.122V201.368H398.695V204H387.824V188.596ZM402.713 204.172C402.226 204.172 401.814 204.004 401.478 203.667C401.141 203.323 400.973 202.915 400.973 202.442C400.973 201.963 401.141 201.554 401.478 201.218C401.814 200.881 402.226 200.713 402.713 200.713C403.193 200.713 403.597 200.885 403.927 201.229C404.263 201.565 404.432 201.97 404.432 202.442C404.432 202.922 404.263 203.33 403.927 203.667C403.597 204.004 403.193 204.172 402.713 204.172ZM18.959 230V214.596H22.2568L22.2461 227.368H28.6699V230H18.959ZM31.6133 214.596H34.9111V230H31.6133V214.596ZM47.8232 214.596H51.3359L46.6738 230H41.6357L36.9844 214.596H40.4971L44.1602 227.164L47.8232 214.596ZM65.6123 220.063C65.6123 221.238 65.3258 222.262 64.7529 223.136C64.1872 224.009 63.3779 224.65 62.3252 225.059L65.376 230H62.0566L59.3174 225.521H56.6963V230H53.3984V214.596H59.6182C61.4945 214.596 62.9626 215.104 64.0225 216.121C65.0824 217.131 65.6123 218.445 65.6123 220.063ZM56.6855 222.889H59.2744C60.1553 222.889 60.8822 222.62 61.4551 222.083C62.028 221.539 62.3145 220.869 62.3145 220.074C62.3145 219.272 62.028 218.599 61.4551 218.055C60.8822 217.503 60.1553 217.228 59.2744 217.228H56.6855V222.889ZM68.1797 214.596H78.7178V217.228H71.4775V221.159H78.0518V223.78H71.4775V227.368H79.0508V230H68.1797V214.596ZM91.0605 214.596H94.3584V223.888C94.3584 225.9 93.7998 227.451 92.6826 228.539C91.5654 229.628 90.0651 230.172 88.1816 230.172C86.2982 230.172 84.7943 229.628 83.6699 228.539C82.5527 227.443 81.9941 225.893 81.9941 223.888V214.596H85.292V224.092C85.292 225.051 85.5534 225.803 86.0762 226.348C86.599 226.885 87.3008 227.153 88.1816 227.153C89.0553 227.153 89.75 226.881 90.2656 226.337C90.7884 225.793 91.0498 225.044 91.0498 224.092L91.0605 214.596ZM109.526 220.063C109.526 221.238 109.24 222.262 108.667 223.136C108.101 224.009 107.292 224.65 106.239 225.059L109.29 230H105.971L103.231 225.521H100.61V230H97.3125V214.596H103.532C105.409 214.596 106.877 215.104 107.937 216.121C108.996 217.131 109.526 218.445 109.526 220.063ZM100.6 222.889H103.188C104.069 222.889 104.796 222.62 105.369 222.083C105.942 221.539 106.229 220.869 106.229 220.074C106.229 219.272 105.942 218.599 105.369 218.055C104.796 217.503 104.069 217.228 103.188 217.228H100.6V222.889ZM123.019 218.57L119.721 218.828C119.563 218.241 119.284 217.786 118.883 217.464C118.482 217.142 117.98 216.98 117.379 216.98C116.656 216.98 116.086 217.149 115.671 217.485C115.256 217.815 115.048 218.27 115.048 218.85C115.048 219.064 115.094 219.261 115.188 219.44C115.288 219.619 115.402 219.766 115.531 219.881C115.667 219.988 115.857 220.103 116.101 220.225C116.351 220.339 116.57 220.429 116.756 220.493C116.949 220.55 117.207 220.629 117.529 220.729C118.138 220.916 118.643 221.077 119.044 221.213C119.445 221.342 119.875 221.499 120.333 221.686C120.791 221.865 121.164 222.044 121.45 222.223C121.744 222.395 122.034 222.599 122.32 222.835C122.607 223.071 122.825 223.322 122.976 223.587C123.133 223.845 123.258 224.142 123.352 224.479C123.445 224.815 123.491 225.184 123.491 225.585C123.484 226.58 123.226 227.425 122.718 228.12C122.209 228.815 121.515 229.33 120.634 229.667C119.753 230.004 118.711 230.172 117.508 230.172C115.76 230.172 114.335 229.789 113.232 229.022C112.137 228.256 111.524 227.153 111.396 225.714L114.683 225.456C114.804 226.115 115.119 226.623 115.628 226.981C116.144 227.34 116.767 227.519 117.497 227.519C118.285 227.519 118.919 227.361 119.398 227.046C119.885 226.731 120.136 226.269 120.15 225.66C120.158 225.395 120.097 225.148 119.968 224.919C119.839 224.69 119.674 224.496 119.474 224.339C119.273 224.181 119.005 224.024 118.668 223.866C118.331 223.709 118.023 223.583 117.744 223.49C117.465 223.39 117.114 223.275 116.691 223.146C116.219 223.01 115.839 222.896 115.553 222.803C115.266 222.702 114.944 222.584 114.586 222.448C114.228 222.312 113.941 222.183 113.727 222.062C113.519 221.94 113.29 221.797 113.039 221.632C112.796 221.46 112.606 221.285 112.47 221.105C112.334 220.919 112.205 220.708 112.083 220.472C111.961 220.228 111.875 219.963 111.825 219.677C111.775 219.39 111.75 219.072 111.75 218.721C111.75 217.783 112.001 216.988 112.502 216.336C113.003 215.677 113.669 215.194 114.5 214.886C115.338 214.578 116.301 214.424 117.39 214.424C118.958 214.424 120.247 214.778 121.257 215.487C122.274 216.196 122.861 217.224 123.019 218.57ZM138.144 213.296H135.737L137.563 209.096H140.668L138.144 213.296ZM131.494 214.596H142.032V217.228H134.792V221.159H141.366V223.78H134.792V227.368H142.365V230H131.494V214.596ZM160.541 228.303L158.35 230.494L156.76 228.904C155.428 229.771 153.902 230.201 152.184 230.193C151.052 230.193 149.989 230 148.993 229.613C148.005 229.219 147.149 228.679 146.426 227.991C145.71 227.304 145.14 226.469 144.718 225.488C144.302 224.507 144.095 223.451 144.095 222.319C144.095 220.808 144.449 219.451 145.158 218.248C145.874 217.038 146.848 216.1 148.08 215.434C149.312 214.768 150.68 214.435 152.184 214.435C153.688 214.435 155.052 214.768 156.276 215.434C157.508 216.1 158.479 217.038 159.188 218.248C159.904 219.451 160.262 220.808 160.262 222.319C160.262 223.974 159.832 225.445 158.973 226.734L160.541 228.303ZM147.328 222.309C147.328 223.691 147.797 224.844 148.735 225.768C149.674 226.691 150.823 227.153 152.184 227.153C153.523 227.153 154.661 226.691 155.6 225.768C156.545 224.844 157.018 223.691 157.018 222.309C157.018 220.919 156.549 219.766 155.61 218.85C154.672 217.926 153.53 217.464 152.184 217.464C150.83 217.464 149.681 217.926 148.735 218.85C147.797 219.766 147.328 220.919 147.328 222.309ZM171.82 214.596H175.118V223.888C175.118 225.9 174.56 227.451 173.442 228.539C172.325 229.628 170.825 230.172 168.941 230.172C167.058 230.172 165.554 229.628 164.43 228.539C163.312 227.443 162.754 225.893 162.754 223.888V214.596H166.052V224.092C166.052 225.051 166.313 225.803 166.836 226.348C167.359 226.885 168.061 227.153 168.941 227.153C169.815 227.153 170.51 226.881 171.025 226.337C171.548 225.793 171.81 225.044 171.81 224.092L171.82 214.596ZM178.072 214.596H181.37V230H178.072V214.596ZM190.544 214.596C192.42 214.596 193.888 215.104 194.948 216.121C196.008 217.131 196.538 218.449 196.538 220.074C196.538 221.693 196.008 223.007 194.948 224.017C193.888 225.019 192.42 225.521 190.544 225.521H187.622V230H184.324V214.596H190.544ZM190.2 222.889C191.081 222.889 191.808 222.62 192.381 222.083C192.954 221.539 193.24 220.869 193.24 220.074C193.24 219.272 192.954 218.599 192.381 218.055C191.808 217.503 191.081 217.228 190.2 217.228H187.611V222.889H190.2ZM205.69 213.296H203.284L205.11 209.096H208.215L205.69 213.296ZM199.041 214.596H209.579V217.228H202.339V221.159H208.913V223.78H202.339V227.368H209.912V230H199.041V214.596ZM223.694 218.57L220.396 218.828C220.239 218.241 219.96 217.786 219.559 217.464C219.158 217.142 218.656 216.98 218.055 216.98C217.331 216.98 216.762 217.149 216.347 217.485C215.931 217.815 215.724 218.27 215.724 218.85C215.724 219.064 215.77 219.261 215.863 219.44C215.964 219.619 216.078 219.766 216.207 219.881C216.343 219.988 216.533 220.103 216.776 220.225C217.027 220.339 217.245 220.429 217.432 220.493C217.625 220.55 217.883 220.629 218.205 220.729C218.814 220.916 219.319 221.077 219.72 221.213C220.121 221.342 220.55 221.499 221.009 221.686C221.467 221.865 221.84 222.044 222.126 222.223C222.42 222.395 222.71 222.599 222.996 222.835C223.283 223.071 223.501 223.322 223.651 223.587C223.809 223.845 223.934 224.142 224.027 224.479C224.12 224.815 224.167 225.184 224.167 225.585C224.16 226.58 223.902 227.425 223.394 228.12C222.885 228.815 222.19 229.33 221.31 229.667C220.429 230.004 219.387 230.172 218.184 230.172C216.436 230.172 215.011 229.789 213.908 229.022C212.812 228.256 212.2 227.153 212.071 225.714L215.358 225.456C215.48 226.115 215.795 226.623 216.304 226.981C216.819 227.34 217.442 227.519 218.173 227.519C218.961 227.519 219.594 227.361 220.074 227.046C220.561 226.731 220.812 226.269 220.826 225.66C220.833 225.395 220.772 225.148 220.644 224.919C220.515 224.69 220.35 224.496 220.149 224.339C219.949 224.181 219.68 224.024 219.344 223.866C219.007 223.709 218.699 223.583 218.42 223.49C218.141 223.39 217.79 223.275 217.367 223.146C216.895 223.01 216.515 222.896 216.229 222.803C215.942 222.702 215.62 222.584 215.262 222.448C214.904 222.312 214.617 222.183 214.402 222.062C214.195 221.94 213.965 221.797 213.715 221.632C213.471 221.46 213.282 221.285 213.146 221.105C213.009 220.919 212.881 220.708 212.759 220.472C212.637 220.228 212.551 219.963 212.501 219.677C212.451 219.39 212.426 219.072 212.426 218.721C212.426 217.783 212.676 216.988 213.178 216.336C213.679 215.677 214.345 215.194 215.176 214.886C216.014 214.578 216.977 214.424 218.065 214.424C219.634 214.424 220.923 214.778 221.933 215.487C222.95 216.196 223.537 217.224 223.694 218.57ZM238.54 214.596C240.037 214.596 241.38 214.925 242.568 215.584C243.757 216.243 244.685 217.16 245.351 218.334C246.017 219.501 246.35 220.823 246.35 222.298C246.35 223.773 246.017 225.098 245.351 226.272C244.685 227.447 243.757 228.364 242.568 229.022C241.38 229.674 240.037 230 238.54 230H232.17V214.596H238.54ZM238.132 227.368C239.5 227.368 240.66 226.892 241.612 225.939C242.572 224.98 243.052 223.766 243.052 222.298C243.052 221.31 242.83 220.425 242.386 219.645C241.942 218.864 241.347 218.266 240.603 217.851C239.858 217.435 239.034 217.228 238.132 217.228H235.468V227.368H238.132ZM248.691 214.596H259.229V217.228H251.989V221.159H258.563V223.78H251.989V227.368H259.562V230H248.691V214.596ZM275.311 221.256H283.732V222.298C283.732 223.429 283.521 224.486 283.099 225.467C282.683 226.448 282.114 227.282 281.391 227.97C280.674 228.657 279.819 229.198 278.823 229.592C277.835 229.979 276.779 230.172 275.654 230.172C274.523 230.172 273.459 229.979 272.464 229.592C271.476 229.198 270.62 228.657 269.896 227.97C269.18 227.282 268.611 226.448 268.188 225.467C267.773 224.486 267.565 223.433 267.565 222.309C267.565 221.177 267.773 220.121 268.188 219.14C268.611 218.151 269.18 217.317 269.896 216.637C270.62 215.949 271.476 215.409 272.464 215.015C273.459 214.621 274.523 214.424 275.654 214.424C277.201 214.424 278.594 214.775 279.833 215.477C281.072 216.178 282.024 217.145 282.69 218.377L279.779 219.763C279.371 219.047 278.798 218.484 278.061 218.076C277.33 217.661 276.528 217.453 275.654 217.453C274.301 217.453 273.151 217.915 272.206 218.839C271.268 219.763 270.799 220.919 270.799 222.309C270.799 223.691 271.268 224.844 272.206 225.768C273.144 226.691 274.294 227.153 275.654 227.153C276.664 227.153 277.588 226.835 278.426 226.197C279.264 225.56 279.858 224.772 280.209 223.834H275.311V221.256ZM295.517 230L294.679 227.336H288.352L287.524 230H284.141L288.985 214.596H294.056L298.911 230H295.517ZM289.179 224.704H293.852L291.521 217.281L289.179 224.704ZM310.964 214.596H314.262V230H310.158L304.261 219.462V230H300.963V214.596H305.056L310.964 225.145V214.596ZM328.012 214.596V217.228H324.037V230H320.739V217.228H316.765V214.596H328.012ZM341.128 218.57L337.83 218.828C337.673 218.241 337.393 217.786 336.992 217.464C336.591 217.142 336.09 216.98 335.488 216.98C334.765 216.98 334.196 217.149 333.78 217.485C333.365 217.815 333.157 218.27 333.157 218.85C333.157 219.064 333.204 219.261 333.297 219.44C333.397 219.619 333.512 219.766 333.641 219.881C333.777 219.988 333.966 220.103 334.21 220.225C334.461 220.339 334.679 220.429 334.865 220.493C335.059 220.55 335.316 220.629 335.639 220.729C336.247 220.916 336.752 221.077 337.153 221.213C337.554 221.342 337.984 221.499 338.442 221.686C338.901 221.865 339.273 222.044 339.56 222.223C339.853 222.395 340.143 222.599 340.43 222.835C340.716 223.071 340.935 223.322 341.085 223.587C341.243 223.845 341.368 224.142 341.461 224.479C341.554 224.815 341.601 225.184 341.601 225.585C341.593 226.58 341.336 227.425 340.827 228.12C340.319 228.815 339.624 229.33 338.743 229.667C337.862 230.004 336.82 230.172 335.617 230.172C333.87 230.172 332.445 229.789 331.342 229.022C330.246 228.256 329.634 227.153 329.505 225.714L332.792 225.456C332.914 226.115 333.229 226.623 333.737 226.981C334.253 227.34 334.876 227.519 335.606 227.519C336.394 227.519 337.028 227.361 337.508 227.046C337.995 226.731 338.245 226.269 338.26 225.66C338.267 225.395 338.206 225.148 338.077 224.919C337.948 224.69 337.784 224.496 337.583 224.339C337.382 224.181 337.114 224.024 336.777 223.866C336.441 223.709 336.133 223.583 335.854 223.49C335.574 223.39 335.223 223.275 334.801 223.146C334.328 223.01 333.949 222.896 333.662 222.803C333.376 222.702 333.053 222.584 332.695 222.448C332.337 222.312 332.051 222.183 331.836 222.062C331.628 221.94 331.399 221.797 331.148 221.632C330.905 221.46 330.715 221.285 330.579 221.105C330.443 220.919 330.314 220.708 330.192 220.472C330.071 220.228 329.985 219.963 329.935 219.677C329.884 219.39 329.859 219.072 329.859 218.721C329.859 217.783 330.11 216.988 330.611 216.336C331.113 215.677 331.779 215.194 332.609 214.886C333.447 214.578 334.41 214.424 335.499 214.424C337.067 214.424 338.356 214.778 339.366 215.487C340.383 216.196 340.97 217.224 341.128 218.57ZM349.604 214.596H360.142V217.228H352.901V221.159H359.476V223.78H352.901V227.368H360.475V230H349.604V214.596ZM374.225 214.596V217.228H370.25V230H366.952V217.228H362.978V214.596H374.225ZM399.694 214.596V230H396.396V218.946L391.745 225.864H390.209L385.536 218.936V230H382.238V214.596H386.385L390.961 221.514L395.559 214.596H399.694ZM413.144 230L412.306 227.336H405.979L405.151 230H401.768L406.612 214.596H411.683L416.538 230H413.144ZM406.806 224.704H411.479L409.147 217.281L406.806 224.704ZM429.214 218.57L425.916 218.828C425.758 218.241 425.479 217.786 425.078 217.464C424.677 217.142 424.176 216.98 423.574 216.98C422.851 216.98 422.282 217.149 421.866 217.485C421.451 217.815 421.243 218.27 421.243 218.85C421.243 219.064 421.29 219.261 421.383 219.44C421.483 219.619 421.598 219.766 421.727 219.881C421.863 219.988 422.052 220.103 422.296 220.225C422.547 220.339 422.765 220.429 422.951 220.493C423.145 220.55 423.402 220.629 423.725 220.729C424.333 220.916 424.838 221.077 425.239 221.213C425.64 221.342 426.07 221.499 426.528 221.686C426.987 221.865 427.359 222.044 427.646 222.223C427.939 222.395 428.229 222.599 428.516 222.835C428.802 223.071 429.021 223.322 429.171 223.587C429.328 223.845 429.454 224.142 429.547 224.479C429.64 224.815 429.687 225.184 429.687 225.585C429.679 226.58 429.422 227.425 428.913 228.12C428.405 228.815 427.71 229.33 426.829 229.667C425.948 230.004 424.906 230.172 423.703 230.172C421.956 230.172 420.531 229.789 419.428 229.022C418.332 228.256 417.72 227.153 417.591 225.714L420.878 225.456C421 226.115 421.315 226.623 421.823 226.981C422.339 227.34 422.962 227.519 423.692 227.519C424.48 227.519 425.114 227.361 425.594 227.046C426.081 226.731 426.331 226.269 426.346 225.66C426.353 225.395 426.292 225.148 426.163 224.919C426.034 224.69 425.869 224.496 425.669 224.339C425.468 224.181 425.2 224.024 424.863 223.866C424.527 223.709 424.219 223.583 423.939 223.49C423.66 223.39 423.309 223.275 422.887 223.146C422.414 223.01 422.035 222.896 421.748 222.803C421.462 222.702 421.139 222.584 420.781 222.448C420.423 222.312 420.137 222.183 419.922 222.062C419.714 221.94 419.485 221.797 419.234 221.632C418.991 221.46 418.801 221.285 418.665 221.105C418.529 220.919 418.4 220.708 418.278 220.472C418.157 220.228 418.071 219.963 418.021 219.677C417.97 219.39 417.945 219.072 417.945 218.721C417.945 217.783 418.196 216.988 418.697 216.336C419.199 215.677 419.865 215.194 420.695 214.886C421.533 214.578 422.496 214.424 423.585 214.424C425.153 214.424 426.442 214.778 427.452 215.487C428.469 216.196 429.056 217.224 429.214 218.57ZM448.109 228.303L445.918 230.494L444.328 228.904C442.996 229.771 441.471 230.201 439.752 230.193C438.62 230.193 437.557 230 436.562 229.613C435.573 229.219 434.717 228.679 433.994 227.991C433.278 227.304 432.709 226.469 432.286 225.488C431.871 224.507 431.663 223.451 431.663 222.319C431.663 220.808 432.018 219.451 432.727 218.248C433.443 217.038 434.417 216.1 435.648 215.434C436.88 214.768 438.248 214.435 439.752 214.435C441.256 214.435 442.62 214.768 443.845 215.434C445.076 216.1 446.047 217.038 446.756 218.248C447.472 219.451 447.83 220.808 447.83 222.319C447.83 223.974 447.4 225.445 446.541 226.734L448.109 228.303ZM434.896 222.309C434.896 223.691 435.366 224.844 436.304 225.768C437.242 226.691 438.391 227.153 439.752 227.153C441.091 227.153 442.23 226.691 443.168 225.768C444.113 224.844 444.586 223.691 444.586 222.309C444.586 220.919 444.117 219.766 443.179 218.85C442.241 217.926 441.098 217.464 439.752 217.464C438.398 217.464 437.249 217.926 436.304 218.85C435.366 219.766 434.896 220.919 434.896 222.309ZM459.389 214.596H462.687V223.888C462.687 225.9 462.128 227.451 461.011 228.539C459.894 229.628 458.393 230.172 456.51 230.172C454.626 230.172 453.122 229.628 451.998 228.539C450.881 227.443 450.322 225.893 450.322 223.888V214.596H453.62V224.092C453.62 225.051 453.882 225.803 454.404 226.348C454.927 226.885 455.629 227.153 456.51 227.153C457.383 227.153 458.078 226.881 458.594 226.337C459.117 225.793 459.378 225.044 459.378 224.092L459.389 214.596ZM465.641 214.596H476.179V217.228H468.938V221.159H475.513V223.78H468.938V227.368H476.512V230H465.641V214.596ZM490.294 218.57L486.996 218.828C486.839 218.241 486.559 217.786 486.158 217.464C485.757 217.142 485.256 216.98 484.654 216.98C483.931 216.98 483.362 217.149 482.946 217.485C482.531 217.815 482.323 218.27 482.323 218.85C482.323 219.064 482.37 219.261 482.463 219.44C482.563 219.619 482.678 219.766 482.807 219.881C482.943 219.988 483.132 220.103 483.376 220.225C483.627 220.339 483.845 220.429 484.031 220.493C484.225 220.55 484.482 220.629 484.805 220.729C485.413 220.916 485.918 221.077 486.319 221.213C486.72 221.342 487.15 221.499 487.608 221.686C488.067 221.865 488.439 222.044 488.726 222.223C489.019 222.395 489.309 222.599 489.596 222.835C489.882 223.071 490.101 223.322 490.251 223.587C490.409 223.845 490.534 224.142 490.627 224.479C490.72 224.815 490.767 225.184 490.767 225.585C490.759 226.58 490.502 227.425 489.993 228.12C489.485 228.815 488.79 229.33 487.909 229.667C487.028 230.004 485.986 230.172 484.783 230.172C483.036 230.172 481.611 229.789 480.508 229.022C479.412 228.256 478.8 227.153 478.671 225.714L481.958 225.456C482.08 226.115 482.395 226.623 482.903 226.981C483.419 227.34 484.042 227.519 484.772 227.519C485.56 227.519 486.194 227.361 486.674 227.046C487.161 226.731 487.411 226.269 487.426 225.66C487.433 225.395 487.372 225.148 487.243 224.919C487.114 224.69 486.95 224.496 486.749 224.339C486.549 224.181 486.28 224.024 485.943 223.866C485.607 223.709 485.299 223.583 485.02 223.49C484.74 223.39 484.389 223.275 483.967 223.146C483.494 223.01 483.115 222.896 482.828 222.803C482.542 222.702 482.219 222.584 481.861 222.448C481.503 222.312 481.217 222.183 481.002 222.062C480.794 221.94 480.565 221.797 480.314 221.632C480.071 221.46 479.881 221.285 479.745 221.105C479.609 220.919 479.48 220.708 479.358 220.472C479.237 220.228 479.151 219.963 479.101 219.677C479.05 219.39 479.025 219.072 479.025 218.721C479.025 217.783 479.276 216.988 479.777 216.336C480.279 215.677 480.945 215.194 481.775 214.886C482.613 214.578 483.576 214.424 484.665 214.424C486.233 214.424 487.522 214.778 488.532 215.487C489.549 216.196 490.136 217.224 490.294 218.57Z" fill="#38342F"/>
<g clip-path="url(#clip0_413_482)">
<path d="M311.031 142.033C340.321 112.744 340.321 65.2563 311.031 35.967C281.742 6.67767 234.255 6.67767 204.965 35.967C175.676 65.2563 175.676 112.744 204.965 142.033C234.255 171.322 281.742 171.322 311.031 142.033Z" fill="#236BB5"/>
<path d="M297.313 128.314C319.025 106.602 319.025 71.3983 297.313 49.6856C275.6 27.9729 240.397 27.9729 218.684 49.6856C196.971 71.3983 196.971 106.602 218.684 128.314C240.397 150.027 275.6 150.027 297.313 128.314Z" fill="#98DBF8"/>
<path d="M277.766 71.1355C273.998 58.5574 258.148 40.8057 258.148 40.8057C258.148 40.8057 242.297 58.5574 238.556 71.1355C234.814 83.7136 242.323 98.6529 258.174 98.6529C274.024 98.6529 281.533 83.705 277.766 71.1355Z" fill="#5CA9DF" stroke="#236BB5" stroke-width="2.18" stroke-linecap="round" stroke-linejoin="round"/>
<path d="M244.346 76.0573C244.346 76.0573 247.818 78.6615 251.932 87.4028C251.932 87.4028 258.443 73.6441 269.537 63.4358" stroke="#D0FFA6" stroke-width="5.52" stroke-linecap="round" stroke-linejoin="round"/>
<path d="M300.257 69.4514C300.257 69.4514 297.722 66.5781 293.955 72.724C290.188 78.8698 282.826 98.0972 282.826 98.0972C282.826 98.0972 293.998 97.4462 295.951 92.9757C297.905 88.5052 300.257 69.4514 300.257 69.4514Z" fill="#DEF8F7" stroke="#236BB5" stroke-width="2" stroke-linejoin="bevel"/>
<path d="M260.361 146.813C260.361 146.813 257.01 113.826 263.504 109.868C269.997 105.91 284.875 97.0903 288.677 94.1563C292.479 91.2223 299.571 67.3334 302.505 66.5C305.439 65.6667 307.392 66.9861 305.578 79.4167C303.512 93.592 304.398 108.193 298.738 113.01C293.078 117.828 280.326 127.464 280.509 129.981C280.691 132.498 280.509 146.813 280.509 146.813H260.361Z" fill="#DEF8F7" stroke="#236BB5" stroke-width="2" stroke-linejoin="bevel"/>
<path d="M286.75 95.5105C286.75 95.5105 291.438 92.1338 293.695 94.3734C295.951 96.6129 293.833 100.241 289.085 105.962C284.337 111.682 282.8 113.228 282.8 113.228" stroke="#236BB5" stroke-width="2" stroke-linejoin="bevel"/>
<path d="M216.038 69.4514C216.038 69.4514 218.573 66.5781 222.34 72.724C226.108 78.8698 233.512 98.0972 233.512 98.0972C233.512 98.0972 222.34 97.4462 220.387 92.9931C218.434 88.5399 216.038 69.4514 216.038 69.4514Z" fill="#DEF8F7" stroke="#236BB5" stroke-width="2" stroke-linejoin="bevel"/>
<path d="M255.917 146.813C255.917 146.813 259.267 113.827 252.774 109.868C246.281 105.91 231.403 97.0904 227.601 94.1564C223.799 91.2224 216.759 67.3422 213.825 66.5088C210.891 65.6755 208.938 66.9949 210.752 79.4255C212.818 93.6008 211.941 108.202 217.592 113.019C223.243 117.837 236.004 127.472 235.821 129.99C235.639 132.507 235.821 146.821 235.821 146.821L255.917 146.813Z" fill="#DEF8F7" stroke="#236BB5" stroke-width="2" stroke-linejoin="bevel"/>
<path d="M229.545 95.5105C229.545 95.5105 224.858 92.1338 222.601 94.3734C220.344 96.6129 222.462 100.241 227.21 105.962C231.958 111.682 233.495 113.228 233.495 113.228" stroke="#236BB5" stroke-width="2" stroke-linejoin="bevel"/>
<path d="M243.469 48.8784C243.469 48.8784 242.983 55.3541 236.75 57.3072C242.983 59.2604 243.469 65.7361 243.469 65.7361C243.469 65.7361 243.955 59.2604 250.188 57.3072C243.955 55.3541 243.469 48.8784 243.469 48.8784Z" fill="white" stroke="#236BB5" stroke-width="1.6" stroke-linecap="round" stroke-linejoin="round"/>
<path d="M274.476 81.8386C274.476 81.8386 273.99 88.3143 267.757 90.2674C273.99 92.2206 274.476 98.6963 274.476 98.6963C274.476 98.6963 274.962 92.2206 281.194 90.2674C274.962 88.3143 274.476 81.8386 274.476 81.8386Z" fill="white" stroke="#236BB5" stroke-width="1.6" stroke-linecap="round" stroke-linejoin="round"/>
<path d="M208.249 53.7079L206.483 56.0539L198.881 50.3336L200.725 47.8837C201.28 47.1463 201.907 46.6297 202.606 46.3342C203.303 46.0367 204.039 45.9614 204.817 46.1081C205.591 46.2531 206.372 46.6216 207.159 47.2137C207.951 47.8096 208.526 48.4637 208.886 49.1759C209.243 49.8863 209.372 50.6267 209.272 51.397C209.171 52.1656 208.83 52.9359 208.249 53.7079ZM206.36 54.5189L207.387 53.1528C207.86 52.5243 208.131 51.9121 208.2 51.3164C208.268 50.7206 208.155 50.1528 207.859 49.6128C207.564 49.0729 207.107 48.5701 206.489 48.1046C205.875 47.6428 205.271 47.3455 204.677 47.2126C204.081 47.0779 203.514 47.1204 202.977 47.34C202.437 47.5578 201.944 47.9637 201.497 48.5576L200.391 50.0275L206.36 54.5189Z" fill="white"/>
<path d="M211.605 49.4502L204.783 42.8182L208.786 38.7014L209.519 39.4138L206.319 42.7046L208.624 44.9455L211.616 41.8679L212.349 42.5803L209.357 45.6579L211.675 47.9117L214.926 44.5676L215.659 45.28L211.605 49.4502Z" fill="white"/>
<path d="M216.726 44.3857L210.758 36.9763L213.262 34.9598C213.841 34.4936 214.395 34.2098 214.926 34.1084C215.455 34.0046 215.946 34.052 216.401 34.2507C216.855 34.4495 217.258 34.7671 217.61 35.2037C217.961 35.6402 218.184 36.0992 218.277 36.5806C218.371 37.0621 218.311 37.5479 218.097 38.038C217.882 38.5258 217.487 39.0009 216.913 39.4632L214.887 41.0951L214.234 40.2847L216.231 38.6761C216.627 38.3575 216.898 38.0432 217.046 37.7332C217.197 37.4212 217.241 37.1154 217.178 36.8157C217.116 36.5117 216.966 36.2113 216.727 35.9147C216.488 35.618 216.224 35.4034 215.934 35.2709C215.644 35.1384 215.329 35.1099 214.988 35.1855C214.646 35.2587 214.274 35.4566 213.874 35.7791L212.296 37.0496L217.623 43.663L216.726 44.3857ZM217.533 38.2481L222.037 40.1079L220.995 40.9471L216.52 39.0641L217.533 38.2481Z" fill="white"/>
<path d="M218.356 31.0585L219.548 30.3726L226.289 35.6047L226.386 35.5491L225.249 27.0916L226.441 26.4058L231.186 34.6517L230.252 35.1892L226.646 28.9243L226.566 28.9706L227.595 36.7185L226.693 37.2376L220.51 32.4556L220.43 32.5019L224.035 38.7668L223.101 39.3044L218.356 31.0585Z" fill="white"/>
<path d="M233.439 33.7589L232.308 34.1847L232.224 24.0501L233.337 23.6309L239.96 31.3027L238.829 31.7284L233.346 25.2359L233.276 25.2621L233.439 33.7589ZM232.546 30.1239L237.102 28.4078L237.462 29.3642L232.906 31.0803L232.546 30.1239Z" fill="white"/>
<path d="M237.942 23.107L237.696 22.1149L244.623 20.4011L244.868 21.3932L241.964 22.1117L244.004 30.3551L242.885 30.6318L240.846 22.3885L237.942 23.107Z" fill="white"/>
<path d="M255.522 23.9061C255.628 24.904 255.539 25.7854 255.256 26.5504C254.972 27.3154 254.538 27.9283 253.951 28.3891C253.365 28.8499 252.668 29.123 251.861 29.2086C251.054 29.2941 250.316 29.173 249.646 28.8454C248.976 28.5178 248.422 28.0097 247.985 27.321C247.547 26.6324 247.276 25.7892 247.17 24.7914C247.064 23.7935 247.153 22.9121 247.436 22.1471C247.719 21.3821 248.154 20.7692 248.741 20.3084C249.327 19.8476 250.024 19.5745 250.831 19.489C251.638 19.4034 252.376 19.5245 253.046 19.8521C253.716 20.1797 254.27 20.6878 254.707 21.3765C255.145 22.0651 255.416 22.9083 255.522 23.9061ZM254.413 24.0237C254.327 23.2044 254.116 22.5276 253.782 21.993C253.452 21.4582 253.038 21.0706 252.543 20.8304C252.05 20.5899 251.517 20.5 250.944 20.5607C250.372 20.6214 249.868 20.8212 249.434 21.1599C249.002 21.4984 248.68 21.9639 248.465 22.5566C248.254 23.1489 248.192 23.8547 248.279 24.6739C248.365 25.4931 248.574 26.1701 248.905 26.705C249.239 27.2395 249.652 27.627 250.145 27.8676C250.64 28.1078 251.175 28.1975 251.747 28.1368C252.32 28.0761 252.822 27.8765 253.254 27.5381C253.688 27.1993 254.011 26.7337 254.222 26.1414C254.436 25.5488 254.5 24.8429 254.413 24.0237Z" fill="white"/>
<path d="M256.861 28.7452L257.049 19.2332L258.201 19.2559L258.033 27.7461L262.455 27.8333L262.435 28.8551L256.861 28.7452Z" fill="white"/>
<path d="M272.014 25.3347C271.874 26.3283 271.574 27.1618 271.113 27.835C270.653 28.5083 270.082 28.9972 269.401 29.3017C268.72 29.6062 267.978 29.7019 267.175 29.5889C266.371 29.4758 265.684 29.179 265.114 28.6984C264.543 28.2178 264.13 27.5904 263.873 26.8161C263.616 26.0419 263.557 25.158 263.697 24.1643C263.837 23.1707 264.137 22.3373 264.598 21.664C265.058 20.9907 265.629 20.5019 266.31 20.1973C266.991 19.8928 267.733 19.7971 268.537 19.9102C269.34 20.0232 270.027 20.3201 270.597 20.8007C271.168 21.2812 271.581 21.9086 271.838 22.6829C272.095 23.4571 272.154 24.3411 272.014 25.3347ZM270.91 25.1793C271.025 24.3636 270.985 23.6559 270.791 23.0563C270.6 22.4571 270.294 21.9808 269.871 21.6273C269.452 21.2743 268.957 21.0577 268.386 20.9774C267.816 20.8971 267.279 20.9686 266.775 21.1917C266.275 21.4152 265.848 21.7884 265.497 22.3112C265.148 22.8344 264.916 23.5039 264.801 24.3197C264.686 25.1355 264.724 25.8429 264.915 26.4421C265.109 27.0417 265.416 27.5181 265.835 27.8711C266.258 28.2245 266.754 28.4414 267.325 28.5216C267.895 28.6019 268.431 28.5303 268.931 28.3067C269.435 28.0836 269.861 27.7104 270.21 27.1872C270.562 26.6644 270.795 25.9951 270.91 25.1793Z" fill="white"/>
<path d="M280.191 25.8279C280.18 25.4991 280.128 25.1924 280.036 24.9079C279.948 24.6213 279.819 24.3614 279.648 24.1281C279.48 23.8957 279.27 23.6948 279.019 23.5255C278.769 23.3562 278.478 23.2238 278.148 23.1282C277.606 22.9715 277.074 22.9688 276.549 23.1202C276.025 23.2716 275.553 23.5816 275.134 24.0502C274.715 24.5189 274.391 25.1489 274.162 25.9402C273.933 26.7315 273.872 27.4377 273.979 28.0587C274.086 28.6797 274.325 29.1955 274.697 29.606C275.068 30.0165 275.536 30.3035 276.101 30.4671C276.625 30.6186 277.118 30.6405 277.582 30.5328C278.049 30.4229 278.453 30.195 278.795 29.849C279.141 29.5009 279.395 29.0472 279.556 28.488L279.875 28.6575L277.126 27.862L277.41 26.8803L280.891 27.8876L280.607 28.8693C280.389 29.6219 280.039 30.2299 279.557 30.6933C279.077 31.1574 278.512 31.4614 277.861 31.6051C277.214 31.7467 276.528 31.7124 275.802 31.5024C274.993 31.2682 274.337 30.8721 273.834 30.3139C273.334 29.7567 273.015 29.0775 272.876 28.2764C272.74 27.4762 272.812 26.5941 273.091 25.6303C273.3 24.9074 273.585 24.2853 273.945 23.7641C274.309 23.2409 274.729 22.8271 275.204 22.5228C275.679 22.2186 276.191 22.0285 276.742 21.9525C277.293 21.8765 277.861 21.9233 278.447 22.0929C278.929 22.2324 279.357 22.4353 279.732 22.7016C280.11 22.9658 280.424 23.2776 280.675 23.6371C280.929 23.9944 281.114 24.3879 281.228 24.8175C281.343 25.2442 281.378 25.6912 281.333 26.1585L280.191 25.8279Z" fill="white"/>
<path d="M285.082 24.5477L281.565 33.3877L280.495 32.9618L284.011 24.1218L285.082 24.5477Z" fill="white"/>
<path d="M293.736 32.0207L292.712 31.4917C292.804 31.166 292.832 30.8527 292.795 30.5516C292.762 30.252 292.677 29.971 292.541 29.7088C292.409 29.4452 292.233 29.2081 292.014 28.9974C291.795 28.7867 291.546 28.6088 291.265 28.4638C290.753 28.1993 290.223 28.089 289.674 28.1329C289.128 28.1782 288.602 28.3893 288.097 28.7663C287.594 29.1446 287.154 29.6997 286.776 30.4315C286.398 31.1633 286.199 31.8435 286.181 32.4721C286.166 33.1022 286.298 33.6531 286.577 34.1251C286.859 34.5984 287.255 34.9673 287.767 35.2318C288.048 35.3768 288.337 35.4777 288.636 35.5343C288.934 35.5909 289.228 35.5983 289.518 35.5565C289.813 35.5134 290.092 35.4187 290.355 35.2727C290.623 35.1253 290.863 34.9214 291.074 34.6611L292.098 35.1901C291.797 35.5822 291.457 35.8962 291.077 36.1321C290.697 36.3681 290.294 36.5275 289.868 36.6104C289.443 36.6906 289.01 36.6952 288.569 36.6242C288.131 36.5546 287.699 36.4096 287.272 36.1892C286.551 35.8167 286.001 35.3093 285.622 34.667C285.243 34.0248 285.06 33.2958 285.074 32.4802C285.088 31.6645 285.325 30.811 285.785 29.9196C286.246 29.0282 286.805 28.341 287.463 27.8581C288.12 27.3752 288.821 27.1027 289.564 27.0406C290.307 26.9786 291.039 27.1338 291.76 27.5064C292.186 27.7268 292.555 27.9956 292.865 28.3128C293.178 28.6314 293.424 28.9886 293.603 29.3844C293.783 29.7774 293.887 30.1971 293.914 30.6435C293.943 31.0871 293.883 31.5461 293.736 32.0207Z" fill="white"/>
<path d="M291.583 38.5626L290.599 37.8634L298.954 32.1277L299.924 32.8161L297.265 42.5962L296.281 41.897L298.598 33.7207L298.538 33.6777L291.583 38.5626ZM294.098 35.7903L298.068 38.6084L297.477 39.4418L293.507 36.6237L294.098 35.7903Z" fill="white"/>
<path d="M298.245 43.4487L304.682 36.4434L305.531 37.2229L299.785 43.4757L303.041 46.4681L302.35 47.2206L298.245 43.4487Z" fill="white"/>
<path d="M303.225 48.27L310.367 41.9849L311.128 42.8497L304.753 48.4597L307.675 51.7797L306.908 52.4549L303.225 48.27Z" fill="white"/>
<path d="M313.882 45.8923L314.659 46.9587L312.623 51.7063L312.688 51.7964L317.832 51.3145L318.608 52.3809L312.064 52.8953L308.894 55.2037L308.216 54.2724L311.385 51.964L313.882 45.8923Z" fill="white"/>
<path d="M233.583 145.133L233.959 144.016L241.758 146.643L241.382 147.76L238.112 146.659L234.986 155.94L233.727 155.516L236.853 146.235L233.583 145.133Z" fill="white"/>
<path d="M240.73 157.613L242.774 146.833L249.28 148.067L249.061 149.225L243.86 148.238L243.169 151.881L248.033 152.803L247.813 153.961L242.95 153.039L242.255 156.702L247.54 157.705L247.32 158.863L240.73 157.613Z" fill="white"/>
<path d="M256.403 151.267C256.371 150.722 256.136 150.285 255.698 149.959C255.26 149.632 254.709 149.448 254.046 149.409C253.561 149.379 253.132 149.432 252.759 149.567C252.389 149.703 252.095 149.902 251.875 150.164C251.659 150.426 251.54 150.732 251.519 151.082C251.502 151.374 251.556 151.63 251.683 151.848C251.813 152.064 251.984 152.248 252.197 152.4C252.41 152.549 252.635 152.675 252.872 152.778C253.109 152.879 253.328 152.961 253.528 153.027L254.622 153.393C254.903 153.485 255.214 153.608 255.556 153.761C255.901 153.914 256.227 154.114 256.534 154.361C256.845 154.606 257.095 154.91 257.284 155.276C257.474 155.642 257.553 156.081 257.522 156.594C257.486 157.186 257.299 157.712 256.96 158.171C256.625 158.63 256.153 158.983 255.544 159.229C254.939 159.475 254.216 159.573 253.374 159.523C252.59 159.476 251.919 159.309 251.36 159.021C250.804 158.734 250.376 158.354 250.076 157.881C249.778 157.409 249.626 156.872 249.619 156.271L250.988 156.353C250.999 156.768 251.118 157.119 251.344 157.405C251.574 157.687 251.872 157.905 252.239 158.059C252.609 158.21 253.011 158.299 253.446 158.325C253.953 158.355 254.412 158.301 254.825 158.161C255.238 158.017 255.571 157.805 255.824 157.523C256.077 157.238 256.216 156.895 256.24 156.496C256.261 156.132 256.178 155.83 255.988 155.59C255.799 155.35 255.542 155.148 255.219 154.986C254.896 154.823 254.545 154.677 254.167 154.547L252.842 154.081C252.001 153.784 251.345 153.392 250.873 152.905C250.401 152.419 250.188 151.807 250.232 151.069C250.269 150.456 250.467 149.931 250.826 149.494C251.188 149.055 251.659 148.725 252.238 148.506C252.82 148.283 253.46 148.193 254.159 148.235C254.865 148.277 255.485 148.441 256.019 148.727C256.553 149.01 256.967 149.378 257.262 149.832C257.56 150.287 257.702 150.791 257.687 151.344L256.403 151.267Z" fill="white"/>
<path d="M258.685 149.797L258.608 148.621L266.82 148.085L266.897 149.262L263.454 149.486L264.091 159.259L262.765 159.345L262.128 149.573L258.685 149.797Z" fill="white"/>
<path d="M270.022 158.63L267.919 147.861L274.418 146.592L274.644 147.749L269.449 148.763L270.16 152.402L275.018 151.453L275.244 152.61L270.386 153.559L271.1 157.219L276.379 156.188L276.605 157.344L270.022 158.63Z" fill="white"/>
<path d="M282.36 155.549L279.158 156.65L275.589 146.274L278.933 145.124C279.939 144.778 280.872 144.69 281.731 144.859C282.589 145.025 283.342 145.429 283.989 146.071C284.636 146.71 285.144 147.566 285.513 148.64C285.885 149.721 286.012 150.718 285.896 151.63C285.778 152.54 285.423 153.33 284.83 154.002C284.237 154.671 283.413 155.186 282.36 155.549ZM280.031 155.103L281.895 154.462C282.753 154.167 283.407 153.757 283.857 153.232C284.308 152.707 284.566 152.091 284.633 151.385C284.699 150.678 284.588 149.903 284.297 149.058C284.009 148.221 283.624 147.547 283.143 147.036C282.66 146.522 282.091 146.197 281.436 146.06C280.779 145.919 280.046 145.988 279.235 146.267L277.229 146.957L280.031 155.103Z" fill="white"/>
<path d="M202.436 57.3074C198.27 64.6108 195.585 72.664 194.535 81.0061C193.485 89.3482 194.091 97.8155 196.317 105.923C198.543 114.031 202.346 121.621 207.509 128.257C212.671 134.894 219.092 140.447 226.403 144.599" stroke="#98DBF8" stroke-width="2" stroke-miterlimit="10"/>
<path d="M289.641 144.599C296.948 140.443 303.364 134.887 308.523 128.249C313.681 121.611 317.48 114.021 319.702 105.914C321.924 97.8059 322.525 89.3398 321.472 80.9994C320.419 72.6591 317.732 64.6082 313.564 57.3074" stroke="#98DBF8" stroke-width="2" stroke-miterlimit="10"/>
</g>
<defs>
<filter id="filter0_ddddii_413_482" x="0" y="0" width="515" height="257" filterUnits="userSpaceOnUse" color-interpolation-filters="sRGB">
<feFlood flood-opacity="0" result="BackgroundImageFix"/>
<feColorMatrix in="SourceAlpha" type="matrix" values="0 0 0 0 0 0 0 0 0 0 0 0 0 0 0 0 0 0 127 0" result="hardAlpha"/>
<feOffset dx="1" dy="1"/>
<feGaussianBlur stdDeviation="1.5"/>
<feColorMatrix type="matrix" values="0 0 0 0 0.537255 0 0 0 0 0.537255 0 0 0 0 0.537255 0 0 0 0.9 0"/>
<feBlend mode="normal" in2="BackgroundImageFix" result="effect1_dropShadow_413_482"/>
<feColorMatrix in="SourceAlpha" type="matrix" values="0 0 0 0 0 0 0 0 0 0 0 0 0 0 0 0 0 0 127 0" result="hardAlpha"/>
<feOffset dx="-1" dy="-1"/>
<feGaussianBlur stdDeviation="1"/>
<feColorMatrix type="matrix" values="0 0 0 0 1 0 0 0 0 1 0 0 0 0 1 0 0 0 0.9 0"/>
<feBlend mode="normal" in2="effect1_dropShadow_413_482" result="effect2_dropShadow_413_482"/>
<feColorMatrix in="SourceAlpha" type="matrix" values="0 0 0 0 0 0 0 0 0 0 0 0 0 0 0 0 0 0 127 0" result="hardAlpha"/>
<feOffset dx="1" dy="-1"/>
<feGaussianBlur stdDeviation="1"/>
<feColorMatrix type="matrix" values="0 0 0 0 0.537255 0 0 0 0 0.537255 0 0 0 0 0.537255 0 0 0 0.2 0"/>
<feBlend mode="normal" in2="effect2_dropShadow_413_482" result="effect3_dropShadow_413_482"/>
<feColorMatrix in="SourceAlpha" type="matrix" values="0 0 0 0 0 0 0 0 0 0 0 0 0 0 0 0 0 0 127 0" result="hardAlpha"/>
<feOffset dx="-1" dy="1"/>
<feGaussianBlur stdDeviation="1"/>
<feColorMatrix type="matrix" values="0 0 0 0 0.537255 0 0 0 0 0.537255 0 0 0 0 0.537255 0 0 0 0.2 0"/>
<feBlend mode="normal" in2="effect3_dropShadow_413_482" result="effect4_dropShadow_413_482"/>
<feBlend mode="normal" in="SourceGraphic" in2="effect4_dropShadow_413_482" result="shape"/>
<feColorMatrix in="SourceAlpha" type="matrix" values="0 0 0 0 0 0 0 0 0 0 0 0 0 0 0 0 0 0 127 0" result="hardAlpha"/>
<feOffset dx="-1" dy="-1"/>
<feGaussianBlur stdDeviation="1"/>
<feComposite in2="hardAlpha" operator="arithmetic" k2="-1" k3="1"/>
<feColorMatrix type="matrix" values="0 0 0 0 0.537255 0 0 0 0 0.537255 0 0 0 0 0.537255 0 0 0 0.5 0"/>
<feBlend mode="normal" in2="shape" result="effect5_innerShadow_413_482"/>
<feColorMatrix in="SourceAlpha" type="matrix" values="0 0 0 0 0 0 0 0 0 0 0 0 0 0 0 0 0 0 127 0" result="hardAlpha"/>
<feOffset dx="1" dy="1"/>
<feGaussianBlur stdDeviation="1"/>
<feComposite in2="hardAlpha" operator="arithmetic" k2="-1" k3="1"/>
<feColorMatrix type="matrix" values="0 0 0 0 1 0 0 0 0 1 0 0 0 0 1 0 0 0 0.3 0"/>
<feBlend mode="normal" in2="effect5_innerShadow_413_482" result="effect6_innerShadow_413_482"/>
</filter>
<linearGradient id="paint0_linear_413_482" x1="83" y1="2.99999" x2="319.923" y2="332.797" gradientUnits="userSpaceOnUse">
<stop stop-color="white"/>
<stop offset="1" stop-color="#E8E8E8"/>
</linearGradient>
<clipPath id="clip0_413_482">
<rect width="150" height="150" fill="white" transform="translate(183 14)"/>
</clipPath>
</defs>
</svg>
