<svg width="183" height="77" viewBox="0 0 183 77" fill="none" xmlns="http://www.w3.org/2000/svg">
<path d="M49.8623 14.9902L39.4131 30.7129L29.0127 14.9902H19.5889V50H27.084V24.8535L37.7041 40.6006H41.1953L51.7666 24.8779V50H59.2617V14.9902H49.8623ZM65.9756 50H90.6826V44.0186H73.4707V35.8643H88.4121V29.9072H73.4707V20.9717H89.9258V14.9902H65.9756V50ZM120.102 38.9648L106.674 14.9902H97.3721V50H104.867V26.0498L118.271 50H127.597V14.9902H120.102V38.9648ZM154.867 36.5723C154.867 38.7451 154.281 40.4297 153.109 41.6748C151.913 42.9199 150.326 43.5303 148.349 43.5303C146.347 43.5303 144.76 42.9199 143.563 41.6748C142.367 40.4541 141.781 38.7451 141.781 36.5723V14.9902H134.286V36.1084C134.286 40.6738 135.556 44.1895 138.119 46.6553C140.658 49.1455 144.076 50.3906 148.349 50.3906C152.621 50.3906 156.039 49.1455 158.578 46.6797C161.117 44.2139 162.387 40.6738 162.387 36.1084V14.9902H154.892L154.867 36.5723Z" fill="#38342F"/>
<g filter="url(#filter0_f_584_3140)">
<path d="M5 59C6 55.5 11.6 49 26 51C44 53.5 57 64 78.5 64C95.7 64 85 48 78.5 51C72 54 75.5 70.5 91.5 71.5C107.5 72.5 133.5 46 177.5 45" stroke="#38342F" stroke-width="4" stroke-linecap="round"/>
</g>
<path d="M5 58C6 54.5 11.6 48 26 50C44 52.5 57 63 78.5 63C95.7 63 85 47 78.5 50C72 53 75.5 69.5 91.5 70.5C107.5 71.5 133.5 45 177.5 44" stroke="#EC7906" stroke-width="4" stroke-linecap="round"/>
<defs>
<filter id="filter0_f_584_3140" x="-0.000488281" y="40" width="182.5" height="36.5275" filterUnits="userSpaceOnUse" color-interpolation-filters="sRGB">
<feFlood flood-opacity="0" result="BackgroundImageFix"/>
<feBlend mode="normal" in="SourceGraphic" in2="BackgroundImageFix" result="shape"/>
<feGaussianBlur stdDeviation="1.5" result="effect1_foregroundBlur_584_3140"/>
</filter>
</defs>
</svg>
